<svg width="2964" height="1930" viewBox="0 0 2964 1930" fill="none" xmlns="http://www.w3.org/2000/svg">
<path d="M1732.82 845.11C1732.82 845.11 1732.82 844.715 1732.82 844.057V841.164C1732.82 838.534 1732.82 834.808 1732.82 830.073C1732.82 820.341 1732.82 806.313 1732.47 788.69L1733.13 789.348L1519.86 789.742C1520.34 789.26 1518.76 790.838 1520.95 788.69V817.273C1520.95 826.654 1520.95 835.947 1520.95 845.022L1519.9 843.926L1671.89 844.408L1716.73 844.715H1728.88H1732.03C1732.41 844.678 1732.79 844.678 1733.17 844.715H1732.21H1729.14H1717.26L1672.2 845.723L1519.46 846.206H1518.41V845.153C1518.41 836.079 1518.41 826.785 1518.41 817.404V788.734L1519.51 787.638L1732.78 788.033H1733.57V788.734C1733.57 806.532 1733.31 820.692 1733.22 830.512C1733.22 835.202 1733.22 838.841 1733.22 841.471C1733.22 842.611 1733.22 843.531 1733.22 844.233C1733.12 844.541 1732.99 844.836 1732.82 845.11Z" fill="#000000"/>
<path d="M2143.06 254.964C2143.02 254.629 2143.02 254.291 2143.06 253.956C2143.06 253.211 2143.06 252.246 2143.06 251.063C2143.06 248.389 2143.06 244.706 2143.06 239.928C2143.06 230.196 2142.84 216.212 2142.71 198.545L2143.36 199.203L1930.09 199.641C1930.58 199.159 1929 200.737 1931.15 198.545V254.964L1930.05 253.912L2082.04 254.395L2126.92 254.701H2139.07H2142.22H2143.36C2143.03 254.743 2142.69 254.743 2142.36 254.701H2139.33H2127.41L2082.78 255.008L1930.05 255.491H1929V198.633C1931.15 196.485 1929.57 198.019 1930.09 197.537L2143.36 197.975H2144.02V198.633C2144.02 216.475 2143.71 230.591 2143.63 240.41C2143.63 245.101 2143.63 248.783 2143.63 251.37C2143.63 252.51 2143.63 253.43 2143.63 254.175C2143.46 254.455 2143.27 254.719 2143.06 254.964Z" fill="#E0E0E0"/>
<path d="M2933.98 1099.98C2933.94 1099.65 2933.94 1099.31 2933.98 1098.97V1096.08C2933.98 1093.45 2933.98 1089.72 2933.98 1084.99C2933.98 1075.26 2933.98 1061.23 2933.63 1043.56L2934.29 1044.22L2721.02 1044.66L2722.11 1043.56V1099.98L2721.06 1098.93L2873.05 1099.41L2917.89 1099.72H2930.03H2933.19H2934.33C2934.33 1099.72 2934.02 1099.72 2933.32 1099.72H2930.3H2918.42L2873.79 1100.03L2721.06 1100.51H2719.96V1043.78L2721.06 1042.73L2934.33 1043.13H2934.73V1043.78C2934.73 1061.62 2934.46 1075.74 2934.37 1085.6C2934.37 1090.29 2934.37 1093.93 2934.37 1096.56V1099.33C2934.26 1099.55 2934.13 1099.77 2933.98 1099.98Z" fill="#E0E0E0"/>
<path d="M2962.91 1043.74C2962.85 1043.39 2962.85 1043.03 2962.91 1042.69C2962.91 1041.85 2962.91 1040.89 2962.91 1039.71C2962.91 1036.9 2962.91 1033.13 2962.91 1028.4C2962.91 1018.49 2962.69 1004.5 2962.52 987.32L2963.31 988.109L2835.17 988.416C2834.16 989.38 2836.48 987.101 2836.22 987.32V1016.34C2836.22 1025.81 2836.22 1034.93 2836.22 1043.7L2835.17 1042.69L2926.88 1043.17L2953.58 1043.48H2960.76H2963.35C2962.58 1043.54 2961.8 1043.54 2961.03 1043.48H2954.01L2927.71 1043.78L2835.34 1044.27H2833.9V1043.21C2833.9 1034.45 2833.9 1025.33 2833.9 1015.86V986.838C2833.63 987.101 2835.96 984.777 2834.99 985.785L2963.13 986.048H2963.92V986.794C2963.92 1004.33 2963.61 1018.31 2963.53 1028.31C2963.53 1033 2963.53 1036.73 2963.53 1039.49C2963.4 1040.92 2963.2 1042.33 2962.91 1043.74Z" fill="#E0E0E0"/>
<path d="M946.898 1733.97L898.676 1754.7L901.92 1468.66C903.411 1434.42 887.673 1419.82 879.124 1410.09C801.488 1321.8 685.712 1385.85 684.704 1475.32L681.81 1730.94L634.86 1730.42L639.507 1463C639.857 1432.89 663.267 1380.63 686.895 1361.91C817.532 1258.41 951.194 1365.33 949.923 1478.44L946.898 1733.97Z" fill="#F5F5F5"/>
<path d="M946.898 1733.97V1728.84C946.898 1725.46 946.898 1720.51 946.898 1714.02C946.898 1700.87 947.161 1681.8 947.336 1657.03C947.511 1632.26 947.818 1602.23 948.125 1567.21C948.3 1549.67 948.476 1531.01 948.651 1511.23C948.651 1491.41 950.448 1470.33 946.372 1448.67C942.29 1425.99 933.1 1404.54 919.499 1385.94C917.702 1383.53 915.992 1381.07 914.107 1378.7C912.222 1376.34 910.074 1374.32 908.057 1371.91C903.937 1367.34 899.545 1363.02 894.906 1358.98C892.67 1356.83 890.04 1355.12 887.585 1353.15C885.13 1351.17 882.719 1349.16 879.957 1347.58C874.646 1344.04 869.111 1340.85 863.387 1338.02C851.673 1332.13 839.275 1327.71 826.475 1324.87L816.568 1323.25L811.614 1322.42L806.573 1322.11L796.402 1321.45C792.983 1321.45 789.564 1321.67 786.144 1321.8C757.804 1323.09 730.372 1332.19 706.885 1348.11C682.169 1364.84 662.796 1388.34 651.08 1415.79C645.195 1429.95 641.329 1444.87 639.594 1460.11C638.279 1475.45 638.63 1491.28 638.323 1507.11C637.622 1570.54 636.876 1636.21 636.131 1703.5C636.131 1712.47 636.029 1721.41 635.824 1730.33L634.728 1729.19L681.679 1729.71L680.583 1730.81C681.138 1679.96 681.708 1630.27 682.292 1581.76C682.555 1557.62 682.833 1533.82 683.125 1510.35C683.125 1498.66 683.257 1487.04 683.52 1475.5C683.771 1463.97 685.691 1452.54 689.219 1441.57C696.414 1420.21 709.967 1401.57 728.059 1388.13C730.202 1386.44 732.442 1384.87 734.766 1383.44L741.78 1379.05C746.54 1376.53 751.477 1374.37 756.554 1372.57C761.571 1370.74 766.713 1369.27 771.941 1368.18C774.527 1367.61 777.157 1367.39 779.744 1366.96L783.645 1366.43H787.591C797.89 1365.86 808.219 1366.73 818.277 1369.02C828.082 1371.37 837.541 1374.98 846.421 1379.76C871.69 1393.78 890.543 1417.05 899.027 1444.68C901.504 1453.25 902.975 1462.07 903.411 1470.98C903.411 1473.17 903.41 1475.37 903.63 1477.51C903.849 1479.66 903.63 1481.9 903.63 1483.96C903.63 1488.34 903.63 1492.46 903.63 1496.67C903.63 1505.04 903.63 1513.29 903.323 1521.35C902.884 1553.62 902.534 1583.25 902.183 1609.99C901.438 1663.43 900.868 1705.25 900.473 1733.05L900.166 1732.74L935.587 1733.31H944.355H947.204H935.719L900.123 1733.09H899.816V1732.78C899.816 1704.99 900.429 1663.17 900.912 1609.73C901.175 1582.99 901.482 1553.31 901.788 1521.05C901.788 1512.98 901.789 1504.74 902.052 1496.36C902.052 1491.98 902.052 1487.95 902.052 1483.65C902.052 1481.55 902.052 1479.27 902.052 1477.25L901.788 1470.81C901.136 1452.84 895.802 1435.36 886.314 1420.09C876.421 1403.73 862.408 1390.27 845.676 1381.03C836.944 1376.35 827.648 1372.81 818.014 1370.51C808.081 1368.28 797.885 1367.45 787.722 1368.05H783.865L780.051 1368.62C777.464 1369.02 774.878 1369.24 772.335 1369.8C762.036 1372 752.082 1375.59 742.745 1380.46L735.862 1384.58C733.587 1385.91 731.392 1387.37 729.287 1388.96C711.504 1402.19 698.208 1420.55 691.191 1441.57C687.739 1452.35 685.878 1463.57 685.668 1474.88C685.668 1486.4 685.536 1498.02 685.273 1509.74C685.01 1533.12 684.747 1556.92 684.484 1581.15C683.958 1629.37 683.388 1679.21 682.818 1730.2V1731.29H681.722L634.728 1730.77H633.632V1729.67C633.632 1720.9 633.735 1711.96 633.939 1702.84C634.728 1635.59 635.473 1569.92 636.219 1506.45C636.526 1490.58 636.219 1474.93 637.49 1459.23C639.279 1443.8 643.219 1428.69 649.195 1414.34C655.307 1400.63 663.208 1387.8 672.692 1376.16C682.3 1364.83 693.371 1354.82 705.614 1346.4C729.407 1330.26 757.206 1321.03 785.925 1319.74C789.388 1319.74 792.851 1319.35 796.315 1319.44L808.107 1320.14L814.595 1320.88L824.415 1322.5L828.798 1323.47C840.971 1326.32 852.749 1330.65 863.869 1336.36C869.677 1339.21 875.286 1342.44 880.659 1346.04C883.42 1347.67 885.788 1349.86 888.33 1351.7C890.873 1353.54 893.459 1355.43 895.783 1357.57C900.424 1361.69 904.815 1366.08 908.934 1370.73L915.071 1377.61C916.956 1380.02 918.666 1382.52 920.463 1384.97C934.189 1403.78 943.44 1425.48 947.511 1448.41C951.588 1470.33 949.528 1491.54 949.659 1511.36C949.791 1531.17 949.133 1550.02 948.914 1567.56C948.432 1602.63 947.994 1632.79 947.643 1657.47C947.292 1682.15 947.029 1701.31 946.81 1714.2C946.81 1720.6 946.81 1725.55 946.547 1728.88C946.284 1732.21 946.898 1733.97 946.898 1733.97Z" fill="#E0E0E0"/>
<path d="M581.232 1563.44L1006.43 1568.27C1010.78 1568.32 1014.93 1570.09 1017.97 1573.2C1021.01 1576.31 1022.69 1580.5 1022.64 1584.85L1018.91 1913.48C1018.87 1917.43 1017.25 1921.2 1014.43 1923.97C1011.6 1926.73 1007.79 1928.26 1003.84 1928.21L577.324 1923.37L581.408 1563.44L581.232 1563.44Z" fill="#E0E0E0"/>
<path d="M581.237 1562.52L955.174 1566.26C959.894 1566.31 964.403 1568.23 967.707 1571.6C971.012 1574.97 972.841 1579.52 972.794 1584.24L969.594 1904.25C969.536 1910.07 967.171 1915.62 963.019 1919.69C958.867 1923.76 953.269 1926.01 947.456 1925.95L578.254 1922.26C573.37 1922.21 568.707 1920.23 565.288 1916.74C561.87 1913.25 559.977 1908.55 560.026 1903.67L563.261 1580.14C563.308 1575.42 565.229 1570.91 568.6 1567.61C571.971 1564.31 576.517 1562.48 581.237 1562.52Z" fill="#EBEBEB"/>
<path d="M821.083 1714.37C821.161 1707.65 819.886 1700.97 817.335 1694.75C814.784 1688.53 811.008 1682.88 806.232 1678.15C801.456 1673.41 795.777 1669.68 789.532 1667.19C783.288 1664.69 776.605 1663.47 769.88 1663.61C756.946 1663.99 744.647 1669.3 735.497 1678.45C726.346 1687.6 721.036 1699.9 720.651 1712.84C720.448 1723.8 723.858 1734.53 730.353 1743.38C736.849 1752.22 746.07 1758.67 756.598 1761.76L723.062 1830.67L809.641 1833.26L784.04 1761.93C794.544 1759.11 803.84 1752.94 810.524 1744.35C817.207 1735.77 820.914 1725.25 821.083 1714.37Z" fill="#E0E0E0"/>
<path d="M967.195 1893.84C966.581 1893.84 967.195 1831.2 968.29 1753.96C969.386 1676.71 970.965 1614.03 971.578 1614.03C972.192 1614.03 971.578 1676.67 970.482 1753.96C969.386 1831.24 967.808 1893.89 967.195 1893.84Z" fill="#FAFAFA"/>
<path d="M875.837 1577.82C875.837 1578.43 820.733 1579.04 752.74 1579.17C684.748 1579.31 629.6 1578.91 629.6 1578.3C629.6 1577.68 684.704 1577.11 752.74 1576.98C820.776 1576.85 875.837 1577.11 875.837 1577.82Z" fill="white"/>
<path d="M718.722 1740.28C717.863 1739.35 717.167 1738.28 716.661 1737.12C715.088 1734.07 713.825 1730.87 712.891 1727.57C709.754 1716.56 710.046 1704.85 713.727 1694.02C717.407 1683.18 724.303 1673.72 733.495 1666.89C736.227 1664.83 739.165 1663.05 742.263 1661.59C743.353 1660.98 744.539 1660.57 745.77 1660.36C745.77 1660.71 740.991 1662.77 734.416 1668.12C725.778 1675.02 719.3 1684.25 715.749 1694.71C712.198 1705.18 711.724 1716.44 714.382 1727.17C716.53 1735.63 719.072 1740.02 718.722 1740.28Z" fill="white"/>
<path d="M738.449 1764.3C738.142 1764.83 735.205 1763.56 731.873 1761.5C728.541 1759.44 726.13 1757.33 726.437 1756.81C726.744 1756.28 729.725 1757.55 733.057 1759.61C736.388 1761.67 738.449 1763.78 738.449 1764.3Z" fill="white"/>
<path d="M780.182 1333.07C777.387 1333.6 774.561 1333.97 771.722 1334.16C764.065 1335.19 756.502 1336.82 749.101 1339.03C724.512 1346.17 702.463 1360.16 685.532 1379.36C668.601 1398.57 657.487 1422.2 653.491 1447.49C652.172 1455.1 651.512 1462.82 651.518 1470.54C651.518 1475.98 651.518 1479.05 651.518 1479.05C651.283 1478.34 651.164 1477.6 651.167 1476.86C651.167 1475.41 650.729 1473.31 650.685 1470.54C650.376 1462.75 650.816 1454.94 652 1447.22C655.658 1421.51 666.765 1397.43 683.95 1377.95C701.135 1358.48 723.647 1344.46 748.707 1337.63C756.204 1335.43 763.897 1333.96 771.678 1333.24C774.396 1332.94 776.544 1332.98 777.99 1332.94C778.724 1332.91 779.458 1332.95 780.182 1333.07Z" fill="white"/>
<path d="M649.195 1517.85C648.197 1513.54 647.93 1509.09 648.406 1504.69C648.107 1500.26 648.566 1495.82 649.765 1491.54C651.086 1500.28 650.894 1509.18 649.195 1517.85Z" fill="white"/>
<path d="M919.367 296.742H706.096V353.161H919.367V296.742Z" fill="#F5F5F5"/>
<path d="M829.193 412.605C829.193 412.605 829.193 412.255 829.193 411.597V408.704C829.193 406.03 829.193 402.304 829.193 397.569C829.193 387.837 829.193 373.853 828.843 356.186L829.5 356.844L616.229 357.282C616.711 356.8 615.133 358.334 617.325 356.186V384.768C617.325 394.179 617.325 403.429 617.325 412.518L616.273 411.466L768.259 411.948L813.105 412.255H825.248H828.404C828.783 412.217 829.165 412.217 829.544 412.255H828.58H825.511H813.631L769.004 412.562L616.273 413.044H615.221V411.992C615.221 402.903 615.221 393.653 615.221 384.242V355.66L616.317 354.564L829.588 355.002H830.245V355.66C830.245 373.458 829.982 387.618 829.895 397.438C829.895 402.128 829.895 405.767 829.895 408.397C829.895 409.537 829.895 410.457 829.895 411.159C829.895 411.86 829.237 412.605 829.193 412.605Z" fill="#E0E0E0"/>
<path d="M2812.37 265.31C2812.34 264.975 2812.34 264.637 2812.37 264.302V261.409C2812.37 258.735 2812.37 255.052 2812.37 250.274C2812.37 240.542 2812.37 226.558 2812.02 208.891L2812.68 209.549L2599.41 209.987C2599.89 209.505 2598.31 211.039 2600.51 208.891V216.037C2600.51 218.448 2600.51 220.859 2600.51 223.226V265.31L2599.45 264.258L2751.44 264.74L2796.29 265.047H2808.43H2811.58H2812.72H2811.72H2808.69H2796.81L2752.18 265.354L2599.45 265.836H2598.36V208.979L2599.45 207.883L2812.72 208.321H2813.38V208.979C2813.38 226.777 2813.12 240.936 2813.03 250.756C2813.03 255.447 2813.03 259.085 2813.03 261.716C2813.03 262.855 2813.03 263.776 2813.03 264.521C2813.03 265.266 2812.42 265.31 2812.37 265.31Z" fill="#E0E0E0"/>
<path d="M1596.09 1386.95C1596.06 1386.6 1596.06 1386.24 1596.09 1385.89V1383C1596.09 1380.37 1596.09 1376.64 1596.09 1371.91C1596.09 1362.18 1595.87 1348.19 1595.74 1330.53L1596.4 1331.18L1383.13 1331.62C1383.61 1331.14 1382.03 1332.67 1384.18 1330.53V1386.86L1383.13 1385.81L1535.11 1386.29L1579.96 1386.59H1592.1H1595.26H1596.4H1595.39H1592.37H1580.49L1535.86 1386.9L1382.87 1388H1381.77V1330.61L1382.87 1329.52L1596.14 1329.96H1596.79V1330.61C1596.79 1348.41 1596.53 1362.57 1596.44 1372.39C1596.44 1377.08 1596.44 1380.72 1596.44 1383.35C1596.44 1384.49 1596.44 1385.41 1596.44 1386.11C1596.34 1386.4 1596.23 1386.68 1596.09 1386.95Z" fill="#E0E0E0"/>
<path d="M288.059 208.365C288.02 208.03 288.02 207.692 288.059 207.357C288.059 206.611 288.059 205.647 288.059 204.463C288.059 201.789 288.059 198.107 288.059 193.328C288.059 183.596 288.059 169.612 287.708 151.946L288.365 152.603L74.7874 153.085C75.2696 152.603 73.6914 154.181 75.8395 151.989V208.365L74.7874 207.313L226.773 207.795L271.619 208.102H283.762H286.919H288.059C287.724 208.143 287.385 208.143 287.05 208.102H284.025H272.102L227.518 208.409L74.7874 208.891H73.6914V152.033L74.7874 150.937L288.059 151.376H288.716V152.033C288.716 169.875 288.453 183.991 288.365 193.811C288.365 198.501 288.365 202.184 288.365 204.77C288.365 205.91 288.365 206.831 288.365 207.576C288.284 207.846 288.181 208.11 288.059 208.365Z" fill="#E0E0E0"/>
<path d="M2414.85 1835.28C2414.85 1835.28 2414.85 1834.92 2414.85 1834.27V1831.37C2414.85 1828.7 2414.85 1825.02 2414.85 1820.24C2414.85 1810.51 2414.85 1796.52 2414.5 1778.86L2415.16 1779.51L2201.89 1779.95L2202.98 1778.86V1807.44C2202.98 1816.88 2202.98 1826.13 2202.98 1835.19L2201.93 1834.14L2353.92 1834.62L2398.76 1834.92H2410.91H2414.11H2415.2C2415.2 1834.92 2414.9 1834.92 2414.24 1834.92H2411.17H2399.29L2354.66 1835.23L2201.93 1835.71H2200.88V1834.66C2200.88 1825.57 2200.88 1816.32 2200.88 1806.91V1778.33L2201.97 1777.23L2415.25 1777.67H2415.9V1778.33C2415.9 1796.13 2415.64 1810.29 2415.55 1820.11C2415.55 1824.8 2415.55 1828.44 2415.55 1831.07C2415.55 1832.21 2415.55 1833.13 2415.55 1833.87C2415.55 1834.62 2414.9 1835.32 2414.85 1835.28Z" fill="#E0E0E0"/>
<path d="M1559.79 127.353C1559.79 127.353 1559.79 126.958 1559.79 126.3V123.407C1559.79 120.777 1559.79 117.051 1559.79 112.316C1559.79 102.584 1559.79 88.556 1559.44 70.9332L1560.1 71.5908L1346.83 71.9853L1347.93 70.9332V99.6032C1347.93 109.043 1347.93 118.293 1347.93 127.353L1346.87 126.3L1498.86 126.783L1543.71 127.046H1555.85H1559.05C1559.41 127.01 1559.78 127.01 1560.15 127.046H1559.18H1556.11H1544.23L1499.61 127.353L1346.87 127.835H1345.82V126.783C1345.82 117.708 1345.82 108.458 1345.82 99.0333V71.0209L1346.92 69.9249L1560.19 70.3633H1560.85V71.0209C1560.85 88.819 1560.58 102.979 1560.5 112.798C1560.5 117.489 1560.5 121.128 1560.5 123.758V126.52C1560.3 126.83 1560.07 127.111 1559.79 127.353Z" fill="#E0E0E0"/>
<path d="M1588.9 70.9331C1588.87 70.5685 1588.87 70.2018 1588.9 69.8372C1588.9 69.0481 1588.9 68.0399 1588.9 66.8562C1588.9 64.0945 1588.9 60.3244 1588.9 55.5461C1588.9 45.6387 1588.64 31.6983 1588.46 14.5138L1589.25 15.2591L1461.12 15.5659L1462.17 14.5138V43.4906C1462.17 52.9158 1462.17 62.0779 1462.17 70.8455L1461.16 69.7934L1552.82 70.2756L1579.52 70.5824H1586.71H1589.3C1588.52 70.6451 1587.75 70.6451 1586.97 70.5824H1579.96L1553.66 70.8455L1461.29 71.3277H1460.24V70.3194C1460.24 61.5518 1460.24 52.3897 1460.24 42.9646V14.6015C1459.98 14.6015 1462.3 12.5411 1461.33 13.5056L1589.47 13.8124H1590.26V14.6015C1590.26 32.1366 1589.91 46.0771 1589.82 56.116C1589.82 60.8066 1589.82 64.489 1589.82 67.2508C1589.82 70.0125 1588.9 70.977 1588.9 70.9331Z" fill="#E0E0E0"/>
<path d="M213.973 1472.6C213.954 1472.27 213.954 1471.93 213.973 1471.6C213.973 1470.85 213.973 1469.89 213.973 1468.7C213.973 1466.03 213.973 1462.35 213.973 1457.61C213.973 1447.88 213.973 1433.85 213.622 1416.19L214.279 1416.84L1.00827 1417.28L2.10421 1416.19V1444.81C2.10421 1454.22 2.10421 1463.47 2.10421 1472.56L1.05212 1471.51L153.038 1471.99L197.884 1472.3H210.027H213.227H214.323C214.323 1472.3 214.016 1472.3 213.359 1472.3H210.29H198.41L153.783 1472.6L1.05212 1473.09H0V1472.6C0 1463.53 0 1454.28 0 1444.86V1416.23C2.19189 1414.08 0.61373 1415.66 1.09595 1415.18L214.367 1415.57H215.025V1416.23C215.025 1434.07 214.762 1448.19 214.674 1458.05C214.674 1462.74 214.674 1466.38 214.674 1469.01V1471.77C214.016 1472.6 214.016 1472.6 213.973 1472.6Z" fill="#E0E0E0"/>
<path d="M243.081 1416.27C243.047 1415.92 243.047 1415.57 243.081 1415.22C243.081 1414.39 243.081 1413.42 243.081 1412.24C243.081 1409.43 243.081 1405.66 243.081 1400.93C243.081 1391.02 242.818 1377.04 242.643 1359.85L243.432 1360.64L115.294 1360.95C114.329 1361.91 116.609 1359.63 116.346 1359.85V1388.87C116.346 1398.34 116.346 1407.46 116.346 1416.23L115.338 1415.22L207.003 1415.7L233.7 1416.01H240.889H243.476C242.702 1416.07 241.925 1416.07 241.152 1416.01H234.138L207.835 1416.32L115.469 1416.8H114.417V1415.75C114.417 1406.98 114.417 1397.86 114.417 1388.39V1359.37L115.513 1358.28L243.081 1359.06H243.87V1359.85C243.87 1377.39 243.519 1391.37 243.432 1401.37C243.432 1406.06 243.432 1409.79 243.432 1412.55C243.432 1415.31 243.081 1416.36 243.081 1416.27Z" fill="#E0E0E0"/>
<path d="M885.569 1008.76C885.53 1008.42 885.53 1008.08 885.569 1007.75V1004.85C885.569 1002.18 885.569 998.498 885.569 993.764C885.569 983.988 885.349 970.004 885.218 952.337L885.875 952.995L672.604 953.433C673.086 952.951 671.508 954.529 673.656 952.337V1008.67L672.604 1007.62L824.59 1008.1L869.436 1008.41H881.579H884.736H885.875H884.867H881.842H869.918L825.335 1008.67L672.604 1009.15H671.508V951.723L672.604 950.627L885.875 951.066H886.533V951.723C886.533 969.565 886.27 983.681 886.182 993.545C886.182 998.191 886.182 1001.87 886.182 1004.46V1007.27C886.054 1007.79 885.847 1008.29 885.569 1008.76Z" fill="#E0E0E0"/>
<path d="M914.502 952.337C914.439 951.989 914.439 951.633 914.502 951.285C914.502 950.452 914.502 949.488 914.502 948.26L914.282 936.95C914.282 927.087 914.283 913.102 913.888 895.918L914.677 896.707L786.495 897.014L787.591 895.918V924.939C787.591 934.364 787.591 943.526 787.591 952.293L786.539 951.285L878.204 951.767L904.945 952.03H912.134H914.721C913.933 952.088 913.142 952.088 912.354 952.03H905.383L879.081 952.337L786.714 952.819H785.706V951.767C785.706 943 785.706 933.838 785.706 924.412V895.392C785.706 895.611 787.81 893.331 786.802 894.296L914.984 894.603H915.773V895.392C915.773 912.927 915.466 926.911 915.378 936.906C915.378 941.597 915.378 945.323 915.159 948.041C914.94 950.759 914.546 952.381 914.502 952.337Z" fill="#E0E0E0"/>
<path d="M2083.69 1928.04C2083.69 1928.65 1635.92 1929.18 1083.75 1929.18C531.576 1929.18 83.6865 1928.52 83.6865 1928.04C83.6865 1927.55 531.356 1926.9 1083.75 1926.9C1636.14 1926.9 2083.69 1927.42 2083.69 1928.04Z" fill="#263238"/>
<path d="M95.8733 1685.66L17.0967 1792.62L149.75 1891.34C158.518 1878.19 108.674 1801.56 108.674 1801.56L161.981 1735.11L95.8733 1685.66Z" fill="#455A64"/>
<path d="M72.1132 1765.35C70.5533 1764.79 68.8382 1764.82 67.2997 1765.44C65.7611 1766.06 64.5085 1767.24 63.784 1768.73C63.1679 1770.28 63.165 1772 63.776 1773.55C64.3871 1775.09 65.5659 1776.35 67.0719 1777.06C68.7247 1777.64 70.5344 1777.59 72.1529 1776.92C73.7714 1776.25 75.0844 1775 75.8394 1773.42C76.3238 1771.74 76.1375 1769.94 75.3199 1768.39C74.5022 1766.85 73.117 1765.68 71.4556 1765.13" fill="white"/>
<path d="M16.9214 1792.88L25.2944 1781.4L149.224 1881.17C149.224 1881.17 153.169 1888.19 149.224 1891.83L16.9214 1792.88Z" fill="#263238"/>
<path d="M111.568 1802.53C111.085 1803.19 107.622 1801.08 102.8 1800.77C97.9779 1800.47 94.3393 1801.96 94.0325 1801.26C93.7256 1800.56 97.408 1797.53 103.107 1797.97C108.806 1798.41 111.918 1802.05 111.568 1802.53Z" fill="#263238"/>
<path d="M120.992 1818.66C120.642 1819.41 117.047 1818.4 112.795 1819.49C108.542 1820.59 105.781 1823.04 105.123 1822.52C104.465 1821.99 106.833 1818.13 112.137 1816.78C117.441 1815.42 121.431 1818.05 120.992 1818.66Z" fill="#263238"/>
<path d="M116.478 1841.19C115.776 1840.89 117.31 1836.81 121.607 1834.66C125.903 1832.51 129.98 1833.21 129.848 1833.96C129.717 1834.71 126.429 1835.19 122.965 1837.16C119.502 1839.13 117.179 1841.59 116.478 1841.19Z" fill="#263238"/>
<path d="M121.825 1786.05C121.08 1786.44 118.801 1783.33 114.943 1780.87C111.085 1778.42 107.403 1777.41 107.447 1776.49C107.491 1775.57 111.83 1775.39 116.477 1778.37C121.124 1781.35 122.527 1785.78 121.825 1786.05Z" fill="#263238"/>
<path d="M416.592 1237.9C418.959 1251.31 422.729 1365.42 425.14 1425.61C427.551 1485.8 421.545 1515.39 414.663 1528.89C407.78 1542.39 148.216 1733.66 128.445 1779.47L62.6885 1726.47C62.6885 1726.47 159.132 1553.35 200.252 1521.88C241.372 1490.4 320.499 1461.51 320.499 1461.51L298.01 1131.9L405.807 1126.02L416.592 1237.9Z" fill="#263238"/>
<path d="M175.352 1791.44L174.212 1924.13L339.524 1926.41C338.779 1910.63 253.69 1877.71 253.69 1877.71L258.074 1792.62L175.352 1791.44Z" fill="#455A64"/>
<path d="M202.663 1870.04C201.068 1870.5 199.699 1871.53 198.817 1872.94C197.935 1874.35 197.603 1876.03 197.884 1877.67C198.291 1879.28 199.298 1880.68 200.699 1881.57C202.1 1882.47 203.79 1882.8 205.425 1882.49C207.109 1881.99 208.55 1880.88 209.472 1879.39C210.394 1877.89 210.732 1876.11 210.422 1874.38C209.835 1872.74 208.632 1871.39 207.07 1870.62C205.507 1869.85 203.707 1869.72 202.049 1870.26" fill="white"/>
<path d="M174.168 1924.62V1910.37L333.08 1918.61C333.08 1918.61 340.357 1921.99 339.437 1927.16L174.168 1924.62Z" fill="#263238"/>
<path d="M256.232 1877.1C256.232 1877.93 252.155 1878.24 248.166 1880.78C244.177 1883.32 241.985 1886.65 241.24 1886.35C240.495 1886.04 241.766 1881.35 246.676 1878.37C251.586 1875.39 256.583 1876.35 256.232 1877.1Z" fill="#263238"/>
<path d="M273.767 1884.68C273.767 1885.47 270.392 1886.78 267.63 1890.16C264.868 1893.54 263.992 1897.17 263.246 1897.09C262.501 1897 261.975 1892.48 265.526 1888.32C269.077 1884.15 273.767 1883.76 273.767 1884.68Z" fill="#263238"/>
<path d="M283.193 1905.42C282.448 1905.42 281.395 1901.51 283.5 1897.13C285.604 1892.75 289.462 1891.04 289.768 1891.69C290.075 1892.35 287.752 1894.72 286.042 1898.36C284.333 1902 283.982 1905.33 283.193 1905.42Z" fill="#263238"/>
<path d="M255.18 1857.59C254.829 1858.33 251.147 1857.15 246.413 1857.59C241.678 1858.03 238.259 1859.21 237.645 1858.51C237.031 1857.81 240.67 1855 246.062 1854.78C251.454 1854.56 255.575 1856.98 255.18 1857.59Z" fill="#263238"/>
<path d="M428.515 1112.39C428.515 1120.15 441.097 1316.59 376.874 1458.71C376.874 1458.71 354.648 1503.16 350.571 1522.58C346.495 1542 263.422 1864.12 263.422 1864.12L167.417 1860.61C167.417 1860.61 152.074 1699.25 167.417 1605.83C182.76 1512.41 211.255 1523.37 211.255 1463.05C211.255 1402.73 196.92 1277.66 196.92 1277.66C196.92 1277.66 175.965 1243.51 168.82 1177.27C162.989 1123.48 188.328 1065.83 188.328 1065.83L213.359 1021.51L425.14 1010.42L428.515 1112.39Z" fill="#263238"/>
<path d="M428.515 1112.39C428.515 1112.39 428.515 1110.11 428.515 1105.68C428.515 1101.25 428.252 1094.68 428.077 1086.04C427.682 1068.73 427.025 1043.21 426.235 1010.25V1009.76H425.709L213.929 1020.55H213.49L213.227 1020.94C205.468 1034.71 196.92 1049.74 188.152 1065.26C181.631 1080.99 176.54 1097.28 172.94 1113.92C168.963 1131.45 167.182 1149.4 167.636 1167.36C168.97 1186.12 171.904 1204.73 176.404 1222.99C180.745 1242.16 187.568 1260.69 196.7 1278.1V1277.66C200.339 1310.36 203.715 1344.25 206.564 1379.14C207.967 1396.68 209.194 1414.21 210.071 1432.23C210.509 1441 210.86 1450.2 210.904 1459.28C210.904 1463.66 210.904 1468.35 210.641 1472.87C210.329 1477.4 209.773 1481.9 208.975 1486.37C207.181 1495.37 204.001 1504.03 199.55 1512.06C195.166 1520.26 190.782 1528.37 186.399 1536.92C178.459 1554.26 172.673 1572.52 169.17 1591.27C161.543 1628.97 160.008 1668.17 159.57 1707.66C159.57 1759.79 162.025 1810.99 166.321 1860.48V1861.53H167.329L263.334 1865.04H264.255L264.474 1864.12C292.311 1756.24 318.263 1655.41 341.146 1564.75L349.432 1531.22C350.878 1525.65 351.799 1520.13 353.509 1514.86C355.218 1509.6 357.147 1504.39 359.164 1499.3C363.284 1489.13 367.931 1479.27 372.315 1469.67L375.734 1462.52C376.949 1460.19 378.032 1457.79 378.978 1455.33C380.951 1450.47 382.924 1445.69 384.896 1440.91C398.53 1405.55 408.675 1368.95 415.188 1331.62C424.577 1278.44 429.417 1224.56 429.655 1170.56C429.918 1132.77 428.384 1112.26 428.384 1112.26C428.384 1112.26 428.384 1113.53 428.384 1116.03C428.384 1118.53 428.384 1122.34 428.647 1127.25C428.91 1137.11 429.085 1151.67 428.647 1170.56C428.241 1224.52 423.358 1278.34 414.049 1331.49C407.385 1368.7 397.107 1405.17 383.362 1440.38L377.488 1454.72C376.523 1457.17 375.427 1459.5 374.244 1461.86C373.06 1464.23 371.92 1466.64 370.781 1469.05C366.397 1478.65 361.75 1488.52 357.629 1498.73C355.569 1503.86 353.596 1509.08 351.886 1514.43C350.177 1519.77 349.169 1525.43 347.766 1530.87C345.004 1541.91 342.242 1553.05 339.393 1564.4C316.115 1654.97 290.207 1755.8 262.457 1863.68L263.597 1862.85L167.592 1859.3L168.732 1860.35C164.348 1810.95 161.806 1759.79 161.981 1707.75C162.419 1668.3 163.954 1629.28 171.538 1591.84C175.03 1573.26 180.756 1555.17 188.59 1537.97C192.536 1529.51 197.358 1521.48 201.742 1513.15C206.164 1504.91 209.298 1496.04 211.035 1486.85C211.867 1482.29 212.437 1477.67 212.745 1473.04C212.745 1468.66 213.184 1463.84 213.008 1459.32C213.008 1450.2 212.614 1441.13 212.175 1432.14C211.298 1414.17 210.027 1396.46 208.581 1379.01C205.658 1343.94 202.341 1310.08 198.629 1277.44V1277.18C189.494 1259.99 182.641 1241.69 178.245 1222.73C173.77 1204.6 170.837 1186.12 169.477 1167.49C169.005 1149.7 170.743 1131.91 174.65 1114.54C178.182 1098.06 183.155 1081.92 189.511 1066.32L214.499 1021.95L213.797 1022.39L425.578 1010.95L425.008 1010.47C426.06 1043.39 426.849 1068.9 427.375 1086.22C427.682 1094.99 427.901 1101.39 428.077 1105.86C428.252 1110.33 428.515 1112.39 428.515 1112.39Z" fill="#455A64"/>
<path d="M359.646 710.133C359.646 710.133 302.657 700.05 307.961 773.391C311.293 817.229 324.181 892.455 331.326 940.457C333.781 957.072 339.217 986.794 361.18 1004.24L518.558 1113.13L568.226 1053.73L427.682 919.897L405.763 787.507L359.646 710.133Z" fill="#455A64"/>
<path d="M366.353 445.791C375.386 453.064 382.533 462.408 387.188 473.031C391.843 483.653 393.869 495.241 393.094 506.813C392.217 518.036 389.105 530.792 396.426 539.341C403.747 547.889 417.775 547.582 424.701 556.262C432.811 566.52 426.016 581.776 429.085 594.533C430.649 600.491 434.282 605.699 439.334 609.225C444.385 612.751 450.527 614.364 456.659 613.777C442.272 625.55 424.921 633.134 406.508 635.696L392.13 617.767C397.478 624.079 396.031 634.118 390.902 640.562C385.33 646.56 378.146 650.823 370.211 652.837C351.325 658.647 331.353 660.02 311.85 656.85C292.347 653.679 273.839 646.05 257.767 634.557" fill="#263238"/>
<path d="M155.8 544.733C158.606 535.965 163.34 528.206 165.225 519.394C169.258 500.413 160.009 479.02 169.215 461.923C175.79 449.78 189.731 443.818 202.97 439.741C216.209 435.664 230.324 432.245 240.188 422.557C247.377 415.455 251.498 405.635 258.688 398.533C268.946 388.363 284.114 384.9 298.492 384.023C313.34 382.588 328.306 385.02 341.936 391.081C348.704 394.169 354.651 398.805 359.296 404.616C363.941 410.426 367.155 417.248 368.677 424.529C369.817 431.631 368.94 439.127 371.219 446.01C373.674 453.55 379.592 459.424 383.275 466.482C386.963 474.062 388.03 482.651 386.308 490.903C384.586 499.155 380.173 506.601 373.762 512.073L272.146 643.324C250.797 651.39 199.068 641.658 182.585 625.789C166.102 609.92 148.742 566.432 155.8 544.733Z" fill="#263238"/>
<path d="M371.087 495.415C366.704 465.605 344.215 430.404 314.624 435.84L223.266 466.526C214.499 468.192 220.724 482.878 221.6 491.952L241.459 697.99C241.459 697.99 229.097 706.757 224.713 705.092C224.463 705.004 224.193 704.997 223.939 705.071C223.685 705.145 223.46 705.296 223.296 705.503C223.132 705.711 223.037 705.964 223.024 706.228C223.01 706.492 223.08 706.754 223.222 706.977C234.313 722.977 285.998 792.548 339.524 771.199C351.448 766.421 338.253 728.852 339.524 714.955L337.946 679.403C336.762 661.254 336.193 653.801 336.193 653.977C336.193 654.152 373.981 644.683 378.058 594.138C380.118 569.107 375.734 528.513 371.087 495.415Z" fill="#FFBF9D"/>
<path d="M364.731 541.27C364.867 542.938 364.348 544.594 363.284 545.887C362.22 547.18 360.695 548.008 359.032 548.196C358.221 548.326 357.393 548.292 356.596 548.097C355.799 547.901 355.049 547.548 354.391 547.057C353.733 546.567 353.18 545.949 352.765 545.241C352.35 544.533 352.081 543.749 351.974 542.935C351.838 541.267 352.357 539.611 353.421 538.318C354.484 537.025 356.009 536.197 357.673 536.009C358.483 535.879 359.311 535.913 360.108 536.108C360.906 536.304 361.655 536.657 362.313 537.148C362.971 537.638 363.524 538.256 363.94 538.964C364.355 539.672 364.624 540.456 364.731 541.27Z" fill="#263238"/>
<path d="M302.481 545.171C302.629 546.835 302.121 548.491 301.064 549.786C300.007 551.08 298.486 551.91 296.826 552.097C296.017 552.221 295.19 552.183 294.396 551.985C293.601 551.787 292.854 551.433 292.197 550.943C291.54 550.454 290.987 549.839 290.57 549.134C290.154 548.429 289.881 547.648 289.768 546.837C289.632 545.168 290.151 543.512 291.215 542.22C292.279 540.927 293.804 540.099 295.467 539.911C296.275 539.781 297.101 539.815 297.895 540.011C298.69 540.207 299.436 540.561 300.091 541.052C300.746 541.543 301.295 542.161 301.705 542.868C302.116 543.576 302.38 544.359 302.481 545.171Z" fill="#263238"/>
<path d="M367.011 520.14C366.309 521.323 360.347 517.553 352.895 518.649C345.443 519.745 340.664 524.83 339.744 523.91C338.823 522.989 339.744 521.455 341.892 519.131C344.589 516.104 348.277 514.136 352.294 513.582C356.311 513.027 360.394 513.922 363.811 516.107C366.266 517.816 367.361 519.614 367.011 520.14Z" fill="#263238"/>
<path d="M300.07 525.707C299.194 526.803 293.363 522.551 285.341 522.901C277.319 523.252 271.62 527.767 270.699 526.759C269.778 525.751 271.094 524.392 273.592 522.375C276.872 519.668 280.958 518.126 285.209 517.992C289.44 517.825 293.605 519.075 297.046 521.542C299.544 523.34 300.465 525.181 300.07 525.707Z" fill="#263238"/>
<path d="M325.189 572.921C328.729 571.476 332.443 570.503 336.236 570.027C337.946 569.72 339.612 569.238 339.787 568.011C339.81 566.178 339.258 564.384 338.209 562.882C336.236 558.761 334.176 554.421 331.984 549.73C323.216 531.187 316.86 515.931 317.605 515.581C318.35 515.23 326.022 529.959 334.702 548.459C336.806 553.062 338.823 557.227 340.708 561.61C341.99 563.644 342.503 566.07 342.154 568.449C341.954 569.09 341.608 569.677 341.144 570.163C340.681 570.65 340.111 571.023 339.48 571.255C338.53 571.58 337.544 571.786 336.543 571.868C332.813 572.667 329.002 573.02 325.189 572.921Z" fill="#263238"/>
<path d="M336.193 654.064C312.717 656.22 289.104 651.819 267.981 641.351C267.981 641.351 287.489 675.106 337.069 666.602L336.193 654.064Z" fill="#FF9A6C"/>
<path d="M304.191 592.998C304.973 591.266 306.179 589.758 307.698 588.615C309.557 587.731 311.667 587.529 313.66 588.045C316.621 588.477 319.36 589.862 321.463 591.99C322.495 593.064 323.222 594.394 323.569 595.843C323.916 597.292 323.87 598.807 323.436 600.232C322.647 603.125 318.351 604.615 315.414 605.229C312.371 605.673 309.269 605.037 306.646 603.432C305.505 602.912 304.509 602.121 303.745 601.128C302.981 600.134 302.472 598.969 302.262 597.733C302.457 596.007 303.124 594.369 304.191 592.998Z" fill="#FF9A6C"/>
<path d="M305.594 583.31C306.69 583.31 307.304 590.631 314.099 595.453C320.894 600.275 328.784 598.829 328.916 599.837C329.047 600.845 327.294 601.415 323.918 601.766C319.538 602.167 315.158 601.002 311.556 598.478C308.081 596.08 305.687 592.411 304.893 588.264C304.454 585.239 305.068 583.31 305.594 583.31Z" fill="#263238"/>
<path d="M299.456 498.747C298.886 500.632 291.96 500.281 283.938 501.903C275.915 503.525 269.559 506.287 268.375 504.577C267.849 503.832 268.814 501.991 271.312 499.974C274.66 497.481 278.534 495.788 282.639 495.028C286.743 494.268 290.967 494.461 294.985 495.591C298.054 496.467 299.676 497.826 299.456 498.747Z" fill="#263238"/>
<path d="M362.759 495.021C361.487 496.687 355.964 495.503 349.607 495.941C343.251 496.38 337.639 497.914 336.237 496.38C335.623 495.634 336.237 493.969 338.648 492.303C341.818 490.214 345.505 489.045 349.3 488.927C353.071 488.656 356.842 489.461 360.172 491.251C362.452 492.566 363.328 494.144 362.759 495.021Z" fill="#263238"/>
<path d="M203.057 473.715C207.441 466.614 215.945 462.975 223.836 459.95C257.915 446.792 293.44 437.741 329.661 432.99C334.044 440.399 330.011 450.525 323.216 455.917C316.422 461.309 307.654 463.457 299.544 466.482C291.434 469.507 283.061 474.242 279.685 482.264C276.31 490.286 279.159 500.851 276.003 509.531C270.611 524.524 249.7 529.346 244.484 544.294C240.451 555.648 247.026 567.704 248.867 579.628C249.709 585.679 249.251 591.841 247.522 597.701C245.794 603.562 242.835 608.986 238.844 613.612C234.853 618.238 229.92 621.959 224.377 624.528C218.833 627.096 212.805 628.453 206.695 628.507C204.24 585.575 201.771 542.672 199.287 499.799C198.542 490.856 198.191 481.212 203.057 473.715Z" fill="#263238"/>
<path d="M116.609 582.126C123.404 576.033 131.909 570.772 134.583 562.093C138.528 549.423 128.358 534.562 134.933 523.033C140.895 512.512 158.474 513.082 164.042 502.342C168.425 493.925 163.384 486.516 165.006 479.151C166.628 471.787 177.149 465.342 184.602 466.219L243.081 551.133C248.517 579.628 253.997 594.971 247.903 611.454C243.873 620.329 240.83 629.62 238.829 639.159C237.514 648.804 240.013 659.719 247.86 665.462C212.789 668.224 179.999 649.9 149.663 632.145L117.705 613.383C114.207 611.709 111.19 609.175 108.937 606.018C104.159 598.215 109.858 588.176 116.609 582.126Z" fill="#263238"/>
<path d="M148.917 623.509C150.141 623.903 151.406 624.153 152.688 624.255C156.345 624.604 160.034 624.337 163.603 623.465C169.3 622.101 174.543 619.276 178.815 615.268C184.458 609.837 187.998 602.585 188.81 594.795C189.337 590.278 188.949 585.701 187.67 581.337C186.098 576.686 183.917 572.264 181.182 568.186C178.283 564.047 176.022 559.495 174.475 554.684C173.653 552.224 173.396 549.611 173.723 547.038C174.049 544.466 174.95 542 176.36 539.823C179.516 535.439 185.434 534.518 190.958 532.327C193.941 531.254 196.536 529.316 198.41 526.759C200.136 524.025 200.978 520.826 200.822 517.597C200.063 511.407 198.728 505.302 196.832 499.361C196.159 496.477 196.159 493.477 196.832 490.593C197.604 487.685 199.393 485.15 201.874 483.447C207.208 480.372 213.252 478.74 219.409 478.713C225.781 478.502 231.996 476.677 237.47 473.409C242.797 470.161 247.121 465.503 249.964 459.95C252.297 454.618 253.776 448.952 254.348 443.16C254.956 437.799 256.101 432.511 257.767 427.379C259.613 422.711 262.421 418.484 266.008 414.973C272.625 408.694 281.167 404.833 290.251 404.013C297.825 403.366 305.427 404.886 312.17 408.397C317.241 410.992 321.812 414.465 325.672 418.655C328.897 422.312 331.692 426.328 334.001 430.623C334.001 430.623 334.001 430.316 333.694 429.702C333.334 428.832 332.924 427.983 332.467 427.16C330.793 423.977 328.747 421.005 326.373 418.304C322.517 413.946 317.915 410.309 312.783 407.564C305.97 403.819 298.228 402.1 290.47 402.61C280.95 403.307 271.958 407.254 265 413.789C261.167 417.492 258.176 421.978 256.233 426.94C254.494 432.168 253.29 437.558 252.638 443.029C252.03 448.631 250.551 454.103 248.254 459.249C245.581 464.423 241.55 468.772 236.593 471.83C231.37 474.894 225.461 476.597 219.409 476.784C212.812 476.77 206.333 478.526 200.646 481.869C197.801 483.805 195.747 486.699 194.86 490.023C194.091 493.266 194.091 496.644 194.86 499.887C196.716 505.716 198.037 511.703 198.805 517.772C198.986 520.591 198.281 523.396 196.788 525.795C195.095 528.019 192.797 529.708 190.169 530.661C187.582 531.757 184.777 532.502 182.059 533.642C179.229 534.71 176.733 536.51 174.826 538.858C173.277 541.279 172.285 544.013 171.922 546.863C171.558 549.714 171.831 552.609 172.721 555.341C174.363 560.307 176.726 565.004 179.736 569.282C182.406 573.158 184.544 577.375 186.092 581.82C187.334 585.965 187.751 590.314 187.319 594.62C186.601 602.118 183.282 609.127 177.938 614.435C173.848 618.396 168.805 621.234 163.296 622.676C158.605 623.901 153.718 624.184 148.917 623.509Z" fill="#455A64"/>
<path d="M102.186 563.145C101.613 564.005 101.224 564.976 101.046 565.994C100.463 569.001 100.993 572.117 102.537 574.762C103.607 576.65 105.109 578.257 106.921 579.452C109.179 580.818 111.778 581.518 114.417 581.469C117.624 581.399 120.75 580.45 123.455 578.726C126.161 577.003 128.341 574.57 129.76 571.693C131.428 568.391 132.284 564.739 132.259 561.04C132.153 557.065 131.321 553.143 129.804 549.467C127.042 541.883 121.957 534.475 121.869 525.619C121.704 523.439 121.979 521.248 122.68 519.176C123.38 517.105 124.491 515.196 125.946 513.564C129.501 510.629 134.068 509.212 138.659 509.619C143.769 509.992 148.904 509.458 153.827 508.04C156.407 506.99 158.586 505.148 160.052 502.78C161.463 500.426 162.346 497.793 162.639 495.064C162.891 489.829 162.464 484.583 161.367 479.458C160.582 474.648 160.867 469.724 162.2 465.036C164.685 456.086 170.505 448.43 178.464 443.643C186.019 439.795 194.405 437.867 202.882 438.031C210.415 438.049 217.903 436.865 225.064 434.524C230.886 432.388 236.222 429.109 240.758 424.88C244.231 421.671 247.189 417.945 249.525 413.833C251.581 410.422 252.993 406.663 253.69 402.742C252.385 406.443 250.756 410.023 248.824 413.438C243.301 422.656 234.794 429.709 224.713 433.428C217.612 435.601 210.219 436.665 202.794 436.585C194.071 436.339 185.423 438.267 177.631 442.196C169.262 447.104 163.084 455.023 160.359 464.334C158.956 469.279 158.642 474.468 159.438 479.546C160.464 484.504 160.891 489.567 160.71 494.626C160.606 497.032 159.844 499.362 158.507 501.364C157.169 503.367 155.308 504.963 153.126 505.98C148.441 507.31 143.558 507.8 138.703 507.427C133.619 506.982 128.563 508.557 124.631 511.811C123.025 513.639 121.809 515.775 121.055 518.089C120.301 520.402 120.027 522.845 120.247 525.269C120.441 529.82 121.528 534.289 123.447 538.42C125.157 542.366 127.042 546.048 128.489 549.73C129.96 553.221 130.791 556.948 130.944 560.734C131.004 564.191 130.253 567.614 128.752 570.729C127.48 573.416 125.495 575.703 123.015 577.342C120.534 578.98 117.651 579.907 114.68 580.022C112.243 580.11 109.83 579.518 107.71 578.313C105.895 577.254 104.385 575.744 103.326 573.929C101.789 571.489 101.153 568.59 101.529 565.731C101.748 564.153 102.318 563.188 102.186 563.145Z" fill="#263238"/>
<path d="M471.433 584.055C472.475 587.02 472.475 590.252 471.433 593.217C470.854 594.92 469.899 596.47 468.639 597.752C467.38 599.035 465.847 600.017 464.155 600.626C461.9 601.291 459.504 601.315 457.235 600.696C454.967 600.077 452.916 598.838 451.311 597.119C449.47 595.095 448.399 592.488 448.286 589.754C448.202 586.773 448.662 583.802 449.645 580.987C451.486 575.069 455.3 568.624 454.73 560.865C454.453 556.931 453.359 553.098 451.517 549.611C449.676 546.124 447.127 543.059 444.034 540.612C440.795 538.019 437.09 536.07 433.118 534.869C429.061 533.745 424.878 533.141 420.668 533.072C416.589 533.038 412.523 532.613 408.525 531.801C404.794 531.031 401.455 528.966 399.1 525.97C397.015 522.896 395.845 519.293 395.725 515.581C395.53 511.963 395.824 508.335 396.601 504.796C398.526 498.121 399.586 491.226 399.758 484.28C399.405 478.114 397.222 472.192 393.489 467.271C390.332 463.366 386.465 460.094 382.091 457.627C378.896 455.736 375.834 453.627 372.929 451.314C370.546 449.274 368.607 446.768 367.23 443.95C367.23 443.95 367.23 443.95 367.23 444.563C367.403 445.156 367.638 445.729 367.931 446.273C369.025 448.404 370.512 450.308 372.315 451.884C375.157 454.358 378.191 456.601 381.39 458.591C385.572 461.079 389.258 464.319 392.261 468.148C395.736 472.865 397.721 478.514 397.96 484.368C397.7 491.157 396.596 497.886 394.672 504.402C393.824 508.109 393.485 511.914 393.664 515.712C393.828 519.803 395.134 523.767 397.434 527.154C400.048 530.536 403.776 532.881 407.955 533.773C412.068 534.618 416.251 535.073 420.449 535.132C424.507 535.185 428.542 535.745 432.461 536.798C436.18 537.954 439.657 539.782 442.719 542.19C445.6 544.462 447.98 547.306 449.707 550.542C451.435 553.779 452.474 557.339 452.758 560.997C453.371 568.055 449.864 574.148 447.935 580.504C446.922 583.554 446.477 586.763 446.62 589.973C446.811 593.037 448.067 595.937 450.171 598.171C451.972 600.057 454.267 601.399 456.794 602.042C459.322 602.686 461.979 602.605 464.462 601.81C466.277 601.106 467.906 599.998 469.228 598.57C470.55 597.142 471.529 595.431 472.09 593.568C472.885 591.283 473.007 588.818 472.441 586.466C472.25 585.609 471.909 584.793 471.433 584.055Z" fill="#263238"/>
<path d="M429.524 927.437V878.953C434.96 851.729 432.373 819.465 419.704 794.609C410.513 778.588 400.353 763.143 389.28 748.36L341.059 685.715C314.493 705.048 272.891 691.064 237.207 678.088C237.207 678.088 202.137 697.596 185.566 715.92C168.338 735.208 227.256 976.536 227.256 976.536C200.559 1029.93 166.102 1077.36 160.885 1126.02L439.694 1136.76L427.858 1008.93L429.524 927.437Z" fill="#455A64"/>
<path d="M425.666 1010.29C425.389 1008.48 425.315 1006.64 425.447 1004.81C425.447 1000.82 425.447 996.044 425.447 989.95C425.666 976.799 425.929 959.834 426.236 940.939C426.543 922.045 427.112 904.466 427.726 891.929C428.033 885.66 428.34 880.575 428.603 877.068C428.633 875.25 428.869 873.441 429.304 871.676C429.482 873.483 429.482 875.304 429.304 877.112C429.304 881.101 429.304 885.879 429.304 891.973C429.085 905.124 428.778 922.089 428.471 940.983C428.164 959.877 427.638 977.456 427.025 989.994C426.718 996.263 426.411 1001.35 426.104 1004.85C426.173 1006.68 426.026 1008.5 425.666 1010.29Z" fill="#263238"/>
<path d="M553.015 1054.39C553.015 1054.39 580.194 1055.88 596.853 1066.4C613.511 1076.92 640.69 1093.32 651.869 1113.62C656.998 1122.95 642.4 1124.93 635.167 1119.53C627.934 1114.14 616.93 1103.88 611.451 1102.66L605.971 1101.39C610.974 1112.71 616.548 1123.77 622.673 1134.53C628.328 1143.29 633.238 1157.85 616.229 1158.51C616.229 1158.51 604.787 1173.41 593.214 1162.36C593.214 1162.36 584.183 1175.91 569.629 1157.15C569.629 1157.15 561.125 1167.89 557.618 1163.77C554.111 1159.65 542.494 1153.16 539.118 1139.74C534.053 1124.13 528.201 1108.78 521.583 1093.76L553.015 1054.39Z" fill="#FFBF9D"/>
<path d="M1161.53 677.649C1164.55 677.649 1289.01 664.498 1289.01 664.498C1289.01 664.498 1299.57 613.909 1299 600.758C1298.43 587.606 1289.58 500.588 1289.58 500.588L1336.18 478.669C1336.18 478.669 1398.47 688.74 1384.88 706.188C1371.29 723.635 1345.73 739.285 1343.54 739.373C1341.35 739.461 1222.94 791.978 1140.57 764.667C1058.2 737.356 1161.53 677.649 1161.53 677.649Z" fill="#FFBF9D"/>
<path d="M1052.46 791.058C1070.78 809.25 1102.35 824.374 1155.04 811.223C1259.2 785.183 1337.27 763.001 1368.31 746.343C1399.35 729.685 1387.25 655.248 1389.88 651.872C1397.73 641.702 1389.09 619.871 1377.91 616.451C1346.04 606.807 1290.59 610.621 1287.78 613.514C1271.43 630.699 1286.33 651.566 1286.33 651.566L1148.99 669.583C1132.1 668.791 1115.18 669.865 1098.53 672.783" fill="#455A64"/>
<path d="M1098.53 672.783L1101.82 672.082C1104.01 671.687 1107.26 671.117 1111.55 670.591C1123.98 669.027 1136.52 668.499 1149.03 669.013L1286.33 650.601L1285.68 652.136C1281.17 645.5 1278.95 637.572 1279.36 629.559C1279.74 625.415 1281.09 621.418 1283.31 617.898C1284.42 616.13 1285.69 614.458 1287.08 612.901C1287.63 612.494 1288.23 612.17 1288.88 611.936L1290.46 611.542C1291.51 611.279 1292.52 611.191 1293.52 610.972C1310.53 609.01 1327.69 608.658 1344.77 609.92C1353.74 610.466 1362.65 611.697 1371.42 613.602C1373.62 614.084 1375.81 614.742 1378.09 615.312C1380.42 616.057 1382.57 617.315 1384.36 618.994C1387.84 622.306 1390.5 626.39 1392.12 630.918C1393.85 635.453 1394.47 640.341 1393.91 645.165C1393.51 647.676 1392.57 650.069 1391.15 652.179C1390.76 652.618 1390.8 653.801 1390.76 654.941V658.448C1391.06 667.873 1391.5 677.474 1391.24 687.118C1391.31 700.809 1389.07 714.414 1384.62 727.361C1382.33 733.848 1378.41 739.632 1373.22 744.151C1370.54 746.25 1367.59 747.989 1364.45 749.324C1361.56 750.858 1358.49 752.042 1355.69 753.445C1343.67 758.574 1331.62 762.782 1319.74 766.596C1307.86 770.41 1296.2 774.092 1284.67 777.468C1238.81 790.619 1196.99 801.272 1162.19 809.996C1153.87 812.194 1145.44 813.935 1136.93 815.212C1129.31 816.275 1121.61 816.685 1113.92 816.44C1101.56 816.176 1089.37 813.526 1078.02 808.637C1070.9 805.495 1064.25 801.362 1058.29 796.362C1056.19 794.664 1054.22 792.802 1052.42 790.795C1052.42 790.795 1054.43 792.724 1058.6 796.011C1064.64 800.83 1071.3 804.812 1078.41 807.848C1089.7 812.505 1101.76 814.989 1113.96 815.169C1121.57 815.351 1129.19 814.882 1136.72 813.766C1145.16 812.433 1153.53 810.647 1161.79 808.418C1196.86 799.65 1238.33 788.866 1284.05 775.451C1295.5 772.076 1307.16 768.481 1319.13 764.536C1331.09 760.59 1342.97 756.426 1354.85 751.384C1357.75 750.025 1360.77 748.842 1363.62 747.308C1366.55 746.019 1369.3 744.37 1371.82 742.398C1376.71 738.145 1380.41 732.691 1382.56 726.572C1386.88 713.796 1389.03 700.386 1388.91 686.899C1389.18 677.299 1388.91 667.786 1388.43 658.317V654.722C1388.43 654.108 1388.43 653.495 1388.43 652.837C1388.4 652.487 1388.4 652.135 1388.43 651.785C1388.53 651.514 1388.65 651.25 1388.78 650.996L1389 650.645C1390.24 648.848 1391.04 646.794 1391.37 644.639C1391.88 640.182 1391.3 635.666 1389.66 631.488C1388.19 627.301 1385.76 623.518 1382.56 620.441C1381.01 618.985 1379.15 617.892 1377.12 617.241C1374.93 616.671 1372.74 616.057 1370.59 615.531C1361.93 613.653 1353.14 612.437 1344.29 611.892C1327.39 610.601 1310.41 610.924 1293.57 612.857C1292.56 612.857 1291.55 613.12 1290.59 613.383L1289.18 613.69C1288.88 613.809 1288.59 613.956 1288.31 614.128C1286.99 615.568 1285.8 617.123 1284.76 618.775C1282.67 622 1281.4 625.688 1281.07 629.515C1280.69 637.05 1282.75 644.506 1286.95 650.777L1287.82 652.136H1286.29L1148.9 669.671C1136.46 669.039 1123.98 669.391 1111.6 670.723C1107.21 671.161 1104.01 671.643 1101.82 671.95C1099.63 672.257 1098.53 672.783 1098.53 672.783Z" fill="#263238"/>
<path d="M726.67 815.554L670.727 715.043L1728.84 126.103C1741.04 119.317 1755.42 117.653 1768.84 121.475C1782.26 125.297 1793.61 134.293 1800.39 146.484L1805.19 155.102C1811.98 167.293 1813.64 181.68 1809.82 195.098C1806 208.516 1797 219.866 1784.81 226.651L726.691 815.592L726.67 815.554Z" fill="#BFB4B3"/>
<path d="M1613.95 283.995L1484.39 51.2199C1483.76 50.0932 1483.36 48.8539 1483.22 47.5729C1483.07 46.2919 1483.17 44.9943 1483.53 43.7541C1483.88 42.5139 1484.47 41.3554 1485.27 40.3448C1486.08 39.3342 1487.07 38.4913 1488.19 37.8641L1547.64 4.77566C1548.77 4.14851 1550.01 3.7494 1551.29 3.60118C1552.57 3.45296 1553.87 3.55849 1555.11 3.91177C1556.35 4.26505 1557.51 4.85919 1558.52 5.66018C1559.53 6.46118 1560.37 7.45335 1561 8.58012L1690.56 241.355L1613.95 283.995Z" fill="#BFB4B3"/>
<path d="M1359.07 175.603L1453.5 345.252C1457.31 352.106 1465.96 354.57 1472.82 350.755L1524.61 321.931C1531.46 318.116 1533.92 309.467 1530.11 302.612L1435.68 132.963C1431.87 126.109 1423.22 123.645 1416.36 127.46L1364.58 156.284C1357.72 160.099 1355.26 168.748 1359.07 175.603Z" fill="#BFB4B3"/>
<path d="M1442.44 165.695L1500.9 270.725L1619.88 204.506L1561.42 99.4754L1442.44 165.695Z" fill="#BFB4B3"/>
<path d="M1713.36 134.937C1713.67 135.463 1506.01 251.633 1249.64 394.369C993.278 537.105 784.961 652.399 784.961 651.829C784.961 651.259 992.27 535.132 1248.72 392.352C1505.17 249.573 1713.05 134.367 1713.36 134.937Z" fill="#263238"/>
<path d="M298.141 1009.72C376.173 1150 540.696 1206.99 665.634 1137.51C790.572 1068.03 828.711 897.934 750.679 757.828C672.648 617.723 508.168 560.558 383.187 630.041C258.205 699.524 220.154 869.615 298.141 1009.72ZM682.994 795.529C737.66 893.726 710.962 1012.83 623.374 1061.54C535.786 1110.24 420.537 1070.3 365.871 972.02C311.205 873.736 337.902 754.716 425.446 705.968C512.991 657.221 628.328 697.332 682.994 795.529Z" fill="#BFB4B3"/>
<path d="M848.842 614.693L906.576 718.421C914.253 732.214 931.658 737.172 945.451 729.495L950.124 726.894C963.917 719.217 968.875 701.812 961.198 688.019L903.464 584.291C895.787 570.498 878.382 565.54 864.589 573.217L859.916 575.818C846.123 583.495 841.165 600.9 848.842 614.693Z" fill="#BFB4B3"/>
<path d="M959.721 552.975L1017.45 656.703C1025.13 670.496 1042.54 675.453 1056.33 667.776L1061 665.175C1074.8 657.498 1079.75 640.093 1072.08 626.3L1014.34 522.572C1006.67 508.779 989.261 503.821 975.468 511.499L970.794 514.1C957.001 521.777 952.044 539.182 959.721 552.975Z" fill="#BFB4B3"/>
<path d="M902.227 582.696C902.797 582.389 916.168 605.93 932.169 635.302C948.169 664.673 960.663 688.609 960.093 688.915C959.523 689.222 946.153 665.725 930.152 636.31C914.151 606.895 901.657 582.696 902.227 582.696Z" fill="#263238"/>
<path d="M851.331 618.863C851.901 618.556 864.965 641.045 880.571 669.013C896.178 696.982 908.321 719.997 907.795 720.303C907.269 720.61 894.161 698.121 878.73 670.372C863.299 642.623 850.805 619.169 851.331 618.863Z" fill="#263238"/>
<path d="M1013.79 521.63C1014.36 521.323 1028 544.733 1044.26 573.929C1060.53 603.125 1073.24 627.104 1072.67 627.411C1072.1 627.718 1058.51 604.264 1042.25 575.068C1025.98 545.872 1013.27 521.937 1013.79 521.63Z" fill="#263238"/>
<path d="M960.268 553.939C960.794 553.632 974.165 576.91 990.034 605.93C1005.9 634.951 1018.4 658.536 1017.83 659.018C1017.26 659.5 1003.97 636.047 988.062 607.026C972.148 578.006 959.698 554.246 960.268 553.939Z" fill="#263238"/>
<path d="M1278.22 395.816C1283.33 396.417 1288.47 395.096 1292.66 392.112C1296.84 389.128 1299.77 384.693 1300.86 379.671C1301.95 374.649 1301.14 369.4 1298.58 364.945C1296.01 360.49 1291.88 357.149 1286.99 355.572C1290.15 352.335 1292.22 348.185 1292.89 343.709C1293.56 339.234 1292.81 334.661 1290.74 330.636C1288.67 326.612 1285.39 323.341 1281.35 321.286C1277.32 319.232 1272.75 318.497 1268.27 319.187C1268.09 314.736 1266.76 310.408 1264.4 306.625C1262.05 302.841 1258.76 299.73 1254.85 297.594C1250.94 295.459 1246.55 294.371 1242.09 294.437C1237.64 294.502 1233.28 295.719 1229.43 297.97C1224.42 293.871 1218.18 291.566 1211.7 291.423C1205.23 291.28 1198.89 293.307 1193.7 297.18C1189.34 296.348 1184.83 296.943 1180.84 298.877C1176.84 300.811 1173.58 303.982 1171.52 307.918C1169.47 311.854 1168.74 316.347 1169.45 320.73C1170.15 325.113 1172.24 329.153 1175.42 332.251" fill="#263238"/>
<path d="M1189.28 317.609H1193.66C1215.76 317.627 1237.05 325.969 1253.28 340.973C1269.51 355.977 1279.5 376.544 1281.25 398.577C1284.54 441.056 1287.61 488.007 1287.26 510.802C1286.42 558.147 1239.34 565.161 1239.34 565.161L1243.15 621.887L1128.61 618.161L1119.09 412.562C1115.06 363.507 1140.18 320.327 1189.28 317.609Z" fill="#FFBF9D"/>
<path d="M1239.73 565.161C1217.82 565.102 1196.38 558.757 1177.97 546.881C1177.97 546.881 1193.14 582.609 1240.22 578.488L1239.73 565.161Z" fill="#FF9A6C"/>
<path d="M1255.34 443.073C1255.35 444.829 1254.68 446.52 1253.45 447.783C1252.23 449.045 1250.57 449.778 1248.81 449.824C1247.95 449.883 1247.09 449.772 1246.28 449.497C1245.47 449.223 1244.72 448.789 1244.07 448.223C1243.43 447.656 1242.9 446.967 1242.53 446.196C1242.15 445.425 1241.93 444.587 1241.88 443.73C1241.88 441.973 1242.56 440.283 1243.78 439.016C1245 437.749 1246.66 437.003 1248.41 436.935C1249.27 436.876 1250.14 436.988 1250.95 437.266C1251.77 437.544 1252.52 437.981 1253.16 438.552C1253.81 439.123 1254.33 439.817 1254.71 440.593C1255.08 441.37 1255.3 442.212 1255.34 443.073Z" fill="#263238"/>
<path d="M1271.03 421.768C1270.2 422.644 1265.07 418.874 1257.88 418.874C1250.69 418.874 1245.3 422.469 1244.51 421.592C1243.72 420.716 1244.99 419.62 1247.32 417.91C1250.46 415.749 1254.2 414.616 1258.01 414.666C1261.78 414.65 1265.46 415.849 1268.49 418.085C1270.68 419.795 1271.43 421.417 1271.03 421.768Z" fill="#263238"/>
<path d="M1189.98 439.916C1190.01 441.699 1189.34 443.424 1188.11 444.714C1186.88 446.003 1185.19 446.753 1183.4 446.799C1182.55 446.858 1181.69 446.747 1180.88 446.473C1180.06 446.198 1179.31 445.764 1178.67 445.198C1178.02 444.631 1177.5 443.942 1177.12 443.171C1176.75 442.4 1176.53 441.562 1176.48 440.705C1176.46 438.945 1177.14 437.249 1178.36 435.98C1179.58 434.71 1181.25 433.968 1183.01 433.911C1183.86 433.845 1184.72 433.948 1185.53 434.215C1186.34 434.482 1187.09 434.906 1187.74 435.464C1188.39 436.022 1188.92 436.703 1189.3 437.467C1189.69 438.231 1189.92 439.063 1189.98 439.916Z" fill="#263238"/>
<path d="M1199.75 422.907C1198.92 423.784 1193.79 420.014 1186.6 420.014C1179.41 420.014 1174.02 423.609 1173.23 422.732C1172.44 421.855 1173.71 420.759 1176.04 419.05C1179.18 416.889 1182.92 415.755 1186.73 415.806C1190.5 415.79 1194.18 416.989 1197.21 419.225C1199.4 420.935 1200.15 422.513 1199.75 422.907Z" fill="#263238"/>
<path d="M1225.88 476.784C1229.71 475.582 1233.67 474.874 1237.67 474.68C1239.52 474.68 1241.27 474.154 1241.62 472.883C1241.77 470.974 1241.35 469.063 1240.39 467.403L1234.96 453.287C1227.42 433.165 1221.8 416.639 1222.77 416.376C1223.73 416.112 1230.35 432.113 1237.89 452.191C1239.69 457.145 1241.44 461.879 1243.11 466.395C1244.25 468.641 1244.57 471.212 1244.03 473.672C1243.76 474.321 1243.34 474.899 1242.8 475.363C1242.27 475.826 1241.64 476.162 1240.96 476.346C1239.95 476.646 1238.9 476.793 1237.85 476.784C1233.88 477.281 1229.86 477.281 1225.88 476.784Z" fill="#263238"/>
<path d="M1206.11 395.026C1205.15 396.868 1198.97 395.026 1191.29 394.588C1183.62 394.15 1177.22 395.596 1176.52 393.667C1176.21 392.747 1177.57 391.125 1180.33 389.634C1183.9 387.874 1187.85 387.059 1191.82 387.267C1195.75 387.407 1199.58 388.586 1202.91 390.686C1205.41 392.396 1206.55 394.194 1206.11 395.026Z" fill="#263238"/>
<path d="M1271.47 391.914C1269.94 393.536 1263.93 391.914 1256.74 391.914C1249.55 391.914 1243.59 393.01 1242.06 391.256C1241.44 390.424 1242.41 388.758 1245.08 387.223C1248.77 385.292 1252.9 384.37 1257.05 384.549C1261.18 384.605 1265.23 385.771 1268.76 387.925C1271.3 389.415 1272.13 391.081 1271.47 391.914Z" fill="#263238"/>
<path d="M1276.78 377.097C1276.78 377.097 1264.42 347.506 1250.17 340.58C1232.94 332.163 1225.49 351.057 1209.05 346.41C1192.61 341.763 1176.17 333.741 1159.34 346.41C1140.92 360.263 1149.52 370.039 1148.29 390.993C1143.47 475.863 1127.86 499.799 1123.61 459.819C1123.13 455.435 1110.98 451.928 1109.23 433.516C1106.95 409.537 1106.12 380.385 1111.55 363.376C1115.94 349.041 1124.31 339.133 1139 328.305C1162.23 311.121 1194.06 310.77 1215.67 313.094C1237.28 315.417 1278.84 340.098 1276.78 377.097Z" fill="#263238"/>
<path d="M1126.59 458.504C1126.54 456.772 1126.14 455.068 1125.41 453.495C1124.69 451.922 1123.65 450.513 1122.36 449.353C1121.08 448.193 1119.57 447.306 1117.93 446.747C1116.29 446.187 1114.55 445.966 1112.82 446.098C1104.06 446.93 1094.19 451.884 1094.72 470.077C1095.64 502.342 1127.86 494.758 1127.9 493.793C1127.95 492.829 1127.12 472.006 1126.59 458.504Z" fill="#FFBF9D"/>
<path d="M1120.5 481.869C1120.5 481.869 1119.97 482.308 1119.01 482.746C1117.7 483.347 1116.21 483.425 1114.84 482.965C1112.71 481.706 1110.96 479.899 1109.76 477.733C1108.57 475.566 1107.98 473.12 1108.05 470.647C1107.88 467.894 1108.33 465.138 1109.36 462.581C1109.64 461.57 1110.16 460.642 1110.88 459.878C1111.6 459.114 1112.49 458.537 1113.48 458.197C1114.12 458.001 1114.82 458.039 1115.43 458.304C1116.05 458.568 1116.56 459.043 1116.86 459.643C1117.3 460.52 1117.12 461.178 1117.3 461.222C1117.47 461.265 1117.95 460.652 1117.65 459.337C1117.47 458.537 1117 457.832 1116.33 457.364C1115.89 457.038 1115.38 456.805 1114.85 456.677C1114.32 456.549 1113.76 456.529 1113.22 456.619C1111.9 456.916 1110.68 457.548 1109.67 458.454C1108.66 459.36 1107.91 460.509 1107.48 461.791C1106.17 464.616 1105.59 467.717 1105.77 470.822C1106.16 477.31 1109.67 483.316 1114.53 484.543C1115.4 484.772 1116.31 484.8 1117.19 484.626C1118.07 484.451 1118.9 484.078 1119.62 483.535C1120.5 482.658 1120.63 481.869 1120.5 481.869Z" fill="#FF9A6C"/>
<path d="M1127.42 395.991C1131.37 399.208 1136.05 401.393 1141.06 402.347C1143.57 402.741 1146.14 402.212 1148.29 400.858C1150.44 399.504 1152.03 397.417 1152.76 394.983C1153.15 392.747 1152.76 390.117 1154.08 388.407C1155.39 386.697 1159.12 387.004 1161.79 387.311C1171.17 388.319 1182.18 377.974 1184.59 368.855C1185.8 370.604 1187.64 371.822 1189.73 372.262C1191.81 372.702 1193.99 372.33 1195.81 371.223C1198.79 369.401 1201.43 367.071 1203.61 364.34C1204.88 362.601 1206.55 361.194 1208.49 360.24C1210.42 359.286 1212.55 358.813 1214.7 358.86C1216.97 359.644 1219.33 360.159 1221.72 360.395C1226.1 360.044 1228.03 355.09 1228.69 350.882C1229.34 346.673 1229.87 341.807 1233.47 339.528C1237.15 338.082 1241.23 337.974 1244.99 339.221C1248.9 339.835 1253.76 338.914 1254.95 335.1C1255.11 334.081 1255.06 333.04 1254.81 332.038C1254.57 331.037 1254.12 330.095 1253.5 329.27C1250.89 325.36 1247.04 322.444 1242.57 320.996C1238.1 319.548 1233.27 319.652 1228.86 321.291C1227.31 315.896 1224.19 311.085 1219.89 307.47C1215.6 303.856 1210.32 301.602 1204.74 300.995C1199.16 300.389 1193.53 301.457 1188.56 304.065C1183.58 306.672 1179.5 310.7 1176.83 315.636C1173.41 312.509 1169.29 310.254 1164.82 309.064C1160.34 307.873 1155.65 307.782 1151.13 308.798C1146.62 309.814 1142.41 311.908 1138.88 314.9C1135.34 317.892 1132.59 321.694 1130.84 325.982C1126.89 324.929 1122.73 325.06 1118.85 326.359C1114.98 327.658 1111.58 330.067 1109.06 333.286C1106.55 336.505 1105.04 340.393 1104.72 344.465C1104.39 348.536 1105.28 352.613 1107.26 356.186C1104.25 357.67 1101.68 359.892 1099.77 362.645C1097.86 365.398 1096.68 368.591 1096.34 371.924C1096.34 378.587 1102.7 385.075 1109.14 383.497C1107.81 386.123 1107.52 389.161 1108.36 391.987C1109.19 394.813 1111.07 397.213 1113.62 398.694C1116.17 400.175 1119.18 400.624 1122.05 399.951C1124.92 399.277 1127.42 397.531 1129.04 395.07" fill="#263238"/>
<path d="M1231.23 330.76C1231.23 330.76 1231.23 330.76 1231.23 331.374C1231.23 331.988 1231.23 332.338 1231.01 333.084C1230.56 335.271 1229.76 337.373 1228.64 339.309C1226.86 342.342 1224.42 344.935 1221.5 346.893C1217.63 349.528 1213.02 350.835 1208.35 350.619L1208.87 349.917C1209.82 352.812 1209.58 355.964 1208.22 358.685C1206.77 361.569 1204.91 364.227 1202.69 366.576C1201.62 367.945 1200.4 369.194 1199.05 370.302C1196.67 371.871 1193.8 372.543 1190.97 372.197C1188.14 371.852 1185.52 370.513 1183.58 368.417L1184.76 368.066C1184.31 371.416 1183.16 374.634 1181.38 377.511C1179.61 380.388 1177.25 382.86 1174.46 384.768C1171.4 387.047 1167.67 388.263 1163.85 388.232C1160.27 388.036 1156.74 387.251 1153.42 385.908L1154.29 385.514C1152.61 389.418 1149.97 392.838 1146.62 395.465C1145.1 396.773 1143.3 397.723 1141.35 398.247C1139.41 398.77 1137.38 398.853 1135.4 398.49C1132.01 397.752 1128.91 396.04 1126.48 393.563C1124.05 391.086 1122.4 387.953 1121.72 384.549L1122.47 384.9C1119.06 386.667 1115.15 387.223 1111.38 386.478C1108.57 385.943 1105.93 384.757 1103.66 383.015C1102.25 381.909 1101.04 380.576 1100.07 379.07C1099.71 378.547 1099.45 377.969 1099.28 377.36C1100.5 379.376 1102.09 381.145 1103.97 382.577C1106.2 384.192 1108.79 385.259 1111.51 385.689C1115.09 386.367 1118.79 385.778 1121.99 384.023L1122.6 383.673V384.374C1123.26 387.542 1124.84 390.448 1127.13 392.737C1129.41 395.026 1132.32 396.598 1135.49 397.262C1137.3 397.578 1139.15 397.486 1140.92 396.993C1142.69 396.5 1144.32 395.618 1145.7 394.413C1148.84 391.916 1151.31 388.677 1152.89 384.988L1153.16 384.418H1153.77C1156.94 385.694 1160.3 386.435 1163.72 386.61C1167.25 386.638 1170.7 385.515 1173.54 383.41C1176.17 381.606 1178.39 379.276 1180.06 376.566C1181.74 373.856 1182.83 370.827 1183.27 367.672V366.137L1184.28 367.321C1185.42 368.58 1186.85 369.542 1188.45 370.123C1190.04 370.703 1191.76 370.885 1193.44 370.653C1195.01 370.443 1196.51 369.873 1197.83 368.987C1199.09 367.967 1200.24 366.805 1201.25 365.524C1203.41 363.287 1205.24 360.747 1206.68 357.984C1207.33 356.753 1207.72 355.406 1207.84 354.021C1207.96 352.636 1207.81 351.241 1207.38 349.917L1207.12 349.128H1207.95C1212.43 349.406 1216.88 348.222 1220.62 345.753C1223.5 343.901 1225.92 341.429 1227.72 338.52C1229.34 336.161 1230.53 333.534 1231.23 330.76Z" fill="#455A64"/>
<path d="M1225.79 500.851C1225.53 499.667 1217.68 501.596 1210.41 496.248C1203.13 490.9 1201.95 482.308 1200.85 482.527C1199.75 482.746 1199.75 484.806 1200.54 488.357C1201.62 492.99 1204.31 497.091 1208.13 499.93C1211.77 502.647 1216.33 503.842 1220.84 503.262C1224.22 502.736 1225.97 501.377 1225.79 500.851Z" fill="#263238"/>
<path d="M1468.92 1727.39L1500.04 1833.43C1500.04 1833.43 1618.41 1837.38 1625.99 1856.45L1422.32 1924.13L1367 1760.84L1468.92 1727.39Z" fill="#455A64"/>
<path d="M1434.2 1845.58C1432.44 1846.83 1431.21 1848.68 1430.73 1850.78C1430.25 1852.89 1430.57 1855.09 1431.61 1856.98C1432.79 1858.78 1434.62 1860.06 1436.71 1860.56C1438.81 1861.05 1441.02 1860.73 1442.88 1859.65C1444.74 1858.32 1446.05 1856.35 1446.54 1854.11C1447.04 1851.88 1446.68 1849.54 1445.55 1847.55C1444.13 1845.79 1442.07 1844.66 1439.83 1844.38C1437.58 1844.1 1435.31 1844.7 1433.5 1846.06" fill="#E0E0E0"/>
<path d="M1614.5 1848.78C1614.5 1848.78 1624.89 1849.7 1625.99 1856.45L1422.32 1924.13L1417.41 1907.43L1614.33 1848.69" fill="#263238"/>
<path d="M1502.98 1831.29C1503.29 1832.29 1498.6 1834.4 1494.65 1839.22C1490.71 1844.04 1489.61 1849.08 1488.56 1849C1487.51 1848.91 1487.11 1842.68 1491.85 1836.94C1496.58 1831.2 1502.89 1830.32 1502.98 1831.29Z" fill="white"/>
<path d="M1527.27 1833C1527.84 1833.92 1524.11 1837.03 1522.09 1842.33C1520.08 1847.64 1520.65 1852.46 1519.64 1852.72C1518.63 1852.99 1516.13 1847.59 1518.72 1841.02C1521.31 1834.44 1526.96 1832.08 1527.27 1833Z" fill="white"/>
<path d="M1547.92 1854.52C1547.08 1855.05 1544.06 1850.53 1544.8 1844.26C1545.55 1837.99 1549.45 1834.22 1550.15 1834.92C1550.85 1835.63 1548.92 1839.31 1548.4 1844.66C1547.87 1850 1548.88 1853.99 1547.92 1854.52Z" fill="white"/>
<path d="M1493.2 1807.92C1493.2 1808.97 1488.08 1809.1 1482.6 1811.34C1477.12 1813.58 1473.3 1816.82 1472.51 1816.16C1471.72 1815.5 1474.75 1810.55 1481.28 1807.96C1487.81 1805.38 1493.47 1806.96 1493.2 1807.92Z" fill="white"/>
<path d="M993.98 1728.31L949.66 1829.58C949.66 1829.58 1037.73 1908.48 1031.37 1928.12L831.911 1849.22L894.468 1688.59L993.98 1728.31Z" fill="#455A64"/>
<path d="M891.399 1796.57C889.254 1796.4 887.121 1797.02 885.407 1798.32C883.694 1799.63 882.518 1801.51 882.105 1803.62C881.86 1805.76 882.44 1807.92 883.727 1809.64C885.014 1811.37 886.911 1812.54 889.032 1812.92C891.309 1813.09 893.569 1812.41 895.38 1811.02C897.191 1809.63 898.427 1807.62 898.851 1805.38C898.851 1800.99 894.862 1796 890.566 1796.61" fill="#E0E0E0"/>
<path d="M1027.47 1914.88C1027.47 1914.88 1034.84 1922.29 1031.37 1928.04L831.911 1849.13L838.881 1833.21L1027.38 1914.75" fill="#263238"/>
<path d="M953.254 1829.84C952.86 1830.8 947.818 1829.31 941.769 1830.54C935.719 1831.77 931.555 1834.92 930.809 1834.14C930.064 1833.35 933.747 1828.35 941.067 1826.99C948.388 1825.63 953.868 1829.01 953.254 1829.84Z" fill="white"/>
<path d="M970.789 1846.76C970.789 1847.77 965.792 1847.77 960.838 1850.57C955.885 1853.38 953.254 1857.37 952.071 1856.98C950.887 1856.58 952.684 1850.79 958.866 1847.42C965.047 1844.04 971.14 1845.84 970.789 1846.76Z" fill="white"/>
<path d="M972.806 1876.48C971.841 1876.48 972.411 1870.96 977.19 1866.62C981.968 1862.28 987.185 1861.93 987.272 1862.89C987.36 1863.86 983.415 1865.61 979.688 1869.25C975.962 1872.89 973.814 1876.79 972.806 1876.48Z" fill="white"/>
<path d="M960.838 1805.77C960.093 1806.47 956.147 1803.41 950.492 1801.39C944.837 1799.37 939.884 1799.64 939.708 1798.63C939.533 1797.62 945.013 1795.73 951.632 1797.93C958.252 1800.12 961.627 1805.07 960.838 1805.77Z" fill="white"/>
<path d="M1068.64 1172.01L998.758 1455.46C998.758 1455.46 872.724 1667.64 851.375 1773.81L966.669 1819.14C966.669 1819.14 1050.53 1614.64 1075.12 1577.11C1086.19 1560.3 1098.91 1544.63 1113.09 1530.34C1122.31 1521.19 1128.92 1509.75 1132.24 1497.2L1185.16 1294.97L1068.64 1172.01Z" fill="#263238"/>
<path d="M1038.87 1126.68C1038.87 1126.68 1048.6 1202.61 1121.68 1236.27L1275.64 1487.03C1275.64 1487.03 1287.69 1568.57 1310.71 1637.26C1333.72 1705.95 1380.23 1838.34 1380.23 1838.34L1506.88 1791L1426.18 1515.08L1413.03 1419.39L1287.39 1099.37L1179.46 1034.66L1038.87 1126.68Z" fill="#263238"/>
<path d="M1038.87 1126.68L1041.19 1125.1L1048.16 1120.46L1075.52 1102.39L1179.24 1034.23L1179.59 1034.01L1179.94 1034.23L1287.96 1098.8V1099.06L1413.86 1418.77V1418.99C1418.02 1449.24 1422.63 1481.64 1427.01 1514.69C1448.93 1589.21 1472.16 1668.95 1496.19 1751.11C1500.07 1764.35 1503.93 1777.5 1507.76 1790.56L1508.07 1791.57L1507.06 1791.92L1380.41 1839.26L1379.31 1839.66L1378.96 1838.56C1357.04 1774.95 1335.83 1713.71 1315.79 1655.63C1310.75 1641.12 1305.8 1626.74 1301.68 1612.36C1297.56 1597.98 1293.83 1583.69 1290.46 1569.57C1283.79 1541.34 1278.44 1513.77 1274.24 1487.03V1487.38L1121.15 1236.54L1121.42 1236.76C1102.9 1228.1 1086.46 1215.57 1073.19 1200.02C1063.47 1188.6 1055.5 1175.81 1049.52 1162.06C1045.83 1153.57 1042.89 1144.76 1040.75 1135.75C1040.01 1132.77 1039.57 1130.45 1039.31 1128.87C1039.05 1127.29 1039 1126.5 1039 1126.5C1039 1126.5 1039 1127.29 1039.48 1128.83C1039.97 1130.36 1040.23 1132.69 1041.06 1135.71C1043.32 1144.6 1046.35 1153.29 1050.09 1161.66C1056.14 1175.28 1064.15 1187.93 1073.85 1199.23C1087.16 1214.62 1103.6 1227 1122.07 1235.53L1276.34 1486.11V1486.33C1280.72 1512.98 1285.98 1540.51 1292.65 1568.7C1296.02 1582.77 1299.7 1597.02 1303.87 1611.35C1308.03 1625.69 1312.94 1639.98 1317.99 1654.49C1338.11 1712.57 1359.28 1773.81 1381.29 1837.38L1379.84 1836.72L1506.49 1789.38L1505.79 1790.74C1501.99 1777.67 1498.13 1764.52 1494.21 1751.28L1425.13 1514.82C1420.74 1481.77 1416.09 1449.37 1411.97 1419.12V1419.39L1286.55 1099.37L1286.9 1099.76L1179.06 1034.93H1179.72L1076 1102.79L1048.38 1120.59L1041.28 1125.19L1038.87 1126.68Z" fill="#455A64"/>
<path d="M1106.69 584.976C1106.69 584.976 1069.77 613.383 1051.85 645.121C1030.36 683.129 1028.04 739.46 1027.38 826.961C1026.73 907.885 1038.83 930.374 1034.18 960.885C1025.02 1020.46 1018.22 1220.41 1018.22 1220.41C1018.22 1220.41 1136.58 1174.95 1159.55 1154.65L1182.66 1134.57L1330.79 1183.54L1300.89 1001.52L1280.37 774.662L1254.07 654.327L1249.69 607.114L1122.47 555.999L1106.69 584.976Z" fill="#455A64"/>
<path d="M1244.91 604.615C1246.44 604.922 1241.27 615.312 1232.15 630.567L1231.76 631.181L1231.05 630.918C1218.21 625.92 1201.2 619.652 1182.61 612.857C1161.66 605.229 1142.72 598.127 1129.18 592.604C1122.38 589.842 1116.94 587.518 1113.22 585.809C1111.24 585.043 1109.33 584.105 1107.52 583.003C1109.6 583.467 1111.63 584.143 1113.57 585.02L1129.75 591.113L1183.4 610.709C1201.99 617.504 1218.96 623.86 1231.62 629.296L1230.57 629.647C1240.13 614.698 1245.78 604.834 1244.91 604.615Z" fill="#263238"/>
<path d="M1397.99 510.101C1397.99 510.101 1388.61 495.503 1379.75 482.045C1370.9 468.586 1357.48 461.967 1355.34 454.953C1353.19 447.939 1341.39 416.682 1339.51 408.923C1337.87 401.408 1337.11 393.73 1337.23 386.04C1337.23 386.04 1346.92 381.919 1351.57 395.772C1354.37 404.101 1363.31 432.376 1365.24 433.779C1367.17 435.182 1369.63 433.122 1369.63 433.122C1365.64 422.535 1362.21 411.751 1359.32 400.813C1358.89 395.684 1360.68 361.666 1360.68 361.666C1363.09 361.181 1365.58 361.574 1367.72 362.772C1369.86 363.97 1371.5 365.895 1372.34 368.198C1376.95 376.965 1377.12 398.884 1377.12 398.884L1384.09 423.346L1381.64 399.147L1385.14 354.652C1388.55 355.137 1391.72 356.66 1394.23 359.013C1396.74 361.366 1398.47 364.436 1399.17 367.803C1402.11 379.815 1398.21 396.561 1400.18 400.112C1402.15 403.663 1404.3 425.143 1404.3 425.143C1404.3 425.143 1406.71 372.976 1412.28 371.486C1417.85 369.995 1422.41 375.519 1421.62 386.04C1420.83 396.561 1420.61 418.83 1423.5 428.65C1426.4 438.47 1456.07 476.872 1453.66 493.705C1452.19 503.876 1451.26 514.121 1450.9 524.392H1400.05L1397.99 510.101Z" fill="#FFBF9D"/>
<path d="M1219.61 641.483C1222.46 642.579 1343.94 672.652 1343.94 672.652C1343.94 672.652 1371.07 628.814 1375.06 616.101C1379.05 603.388 1400.4 518.693 1400.4 518.693L1451.73 513.871C1451.73 513.871 1438.58 732.578 1420 744.37C1401.41 756.163 1371.77 762.125 1369.85 761.467C1367.92 760.81 1238.55 769.796 1170.38 716.095C1102.22 662.394 1219.61 641.483 1219.61 641.483Z" fill="#FFBF9D"/>
<g opacity="0.3">
<path d="M1132.55 757.259C1145.59 772.016 1162.98 782.241 1182.22 786.455C1214.44 793.556 1283.05 806.138 1283.05 806.138L1279.71 772.47L1130.67 756.513" fill="black"/>
</g>
<path d="M1078.46 710.966C1089.5 734.288 1114.05 759.188 1168.02 764.843C1274.85 775.89 1355.73 781.764 1390.67 776.504C1425.61 771.243 1439.5 697.288 1443.27 695.009C1454.15 688.17 1453.44 664.673 1444.06 657.659C1417.41 637.713 1363.97 622.589 1360.38 624.211C1339.11 634.776 1346.04 659.5 1346.04 659.5L1210.58 629.603C1194.98 623.113 1178.7 618.379 1162.05 615.487" fill="#455A64"/>
<path d="M1162.05 615.487C1162.05 615.487 1163.19 615.487 1165.39 615.925C1167.58 616.364 1170.87 616.89 1175.07 617.81C1187.29 620.582 1199.26 624.365 1210.85 629.121L1346.22 658.58L1345.08 659.807C1343.07 652.038 1343.69 643.824 1346.83 636.442C1348.56 632.661 1351.18 629.353 1354.46 626.797C1356.12 625.502 1357.9 624.357 1359.76 623.378C1360.4 623.187 1361.07 623.084 1361.74 623.071H1363.36C1364.45 623.071 1365.42 623.422 1366.47 623.597C1383.13 627.536 1399.38 633.041 1415 640.036C1423.23 643.623 1431.19 647.813 1438.8 652.574C1440.69 653.801 1442.57 655.16 1444.46 656.475C1446.41 657.957 1448 659.86 1449.1 662.043C1451.24 666.348 1452.35 671.089 1452.35 675.896C1452.46 680.76 1451.38 685.577 1449.19 689.924C1447.98 692.166 1446.27 694.101 1444.19 695.579C1443.67 695.842 1443.32 696.982 1442.88 698.034L1441.74 701.322C1438.85 710.089 1435.95 719.47 1432.45 728.501C1427.85 741.451 1421.13 753.542 1412.54 764.273C1409.43 768.351 1405.47 771.697 1400.92 774.076C1396.38 776.454 1391.36 777.807 1386.24 778.038C1382.95 778.52 1379.67 778.608 1376.42 778.871C1363.27 779.66 1350.64 779.484 1338.15 779.134C1325.66 778.783 1313.43 778.126 1301.55 777.38C1253.89 774.312 1211.15 769.972 1175.29 766.245C1166.73 765.495 1158.21 764.266 1149.78 762.563C1142.3 760.963 1134.97 758.734 1127.86 755.9C1116.35 751.427 1105.8 744.79 1096.78 736.348C1091.15 730.961 1086.31 724.807 1082.4 718.068C1081 715.755 1079.78 713.337 1078.76 710.834C1078.76 710.834 1079.99 713.333 1082.8 717.848C1086.85 724.419 1091.76 730.419 1097.39 735.69C1106.4 743.949 1116.91 750.408 1128.34 754.716C1135.46 757.462 1142.79 759.617 1150.26 761.16C1158.67 762.772 1167.16 763.928 1175.69 764.623C1211.55 768.174 1254.29 772.339 1301.85 775.32C1313.78 776.021 1325.96 776.635 1338.41 776.942C1350.86 777.249 1363.62 777.424 1376.51 776.679C1379.71 776.372 1383 776.284 1386.2 775.802C1389.39 775.634 1392.55 775.029 1395.58 774.005C1401.63 771.669 1406.98 767.802 1411.1 762.782C1419.49 752.259 1426.07 740.405 1430.56 727.712C1434.07 718.944 1436.92 709.695 1439.81 700.664L1441.04 697.245C1441.04 696.719 1441.48 696.149 1441.74 695.535C1441.9 695.197 1442.09 694.874 1442.31 694.571C1442.48 694.359 1442.67 694.168 1442.88 694.001L1443.19 693.738C1445.01 692.478 1446.51 690.812 1447.57 688.872C1449.62 684.799 1450.61 680.277 1450.46 675.72C1450.48 671.285 1449.47 666.906 1447.53 662.92C1446.57 661.037 1445.21 659.39 1443.54 658.097C1441.65 656.826 1439.85 655.467 1437.97 654.284C1430.46 649.558 1422.61 645.41 1414.47 641.877C1399.02 634.913 1382.95 629.423 1366.47 625.482C1365.46 625.482 1364.45 625.044 1363.49 624.956H1362.04H1361.08C1359.35 625.878 1357.71 626.949 1356.17 628.156C1353.11 630.46 1350.66 633.468 1349.02 636.924C1346.12 643.858 1345.52 651.542 1347.31 658.843L1347.71 660.377L1346.17 660.026L1211.02 629.778C1199.54 624.947 1187.69 621.019 1175.6 618.03C1171.22 617.021 1168.19 616.32 1166 615.882C1163.81 615.443 1162.05 615.487 1162.05 615.487Z" fill="#263238"/>
<path d="M1390.67 701.804C1387.55 701.031 1384.59 699.742 1381.9 697.99C1375.18 694.24 1368.99 689.611 1363.49 684.225C1357.96 678.859 1353.13 672.82 1349.11 666.251C1347.28 663.56 1345.88 660.603 1344.95 657.484C1350.95 666.339 1357.68 674.682 1365.07 682.428C1373.01 689.638 1381.57 696.123 1390.67 701.804Z" fill="#263238"/>
<path d="M436.932 1062.85C436.932 1062.85 464.112 1064.3 480.77 1074.86C497.428 1085.43 524.608 1101.74 535.787 1122.08C540.916 1131.41 526.318 1133.39 519.128 1127.95C511.939 1122.52 500.848 1112.35 495.368 1111.07L489.888 1109.85C494.885 1121.16 500.459 1132.21 506.591 1142.94C512.246 1151.71 517.155 1166.27 500.19 1166.97C500.19 1166.97 488.705 1181.87 477.132 1170.83C477.132 1170.83 468.101 1184.33 453.547 1165.61C453.547 1165.61 445.086 1176.3 441.535 1172.23C437.984 1168.15 426.411 1161.62 423.036 1148.2C417.999 1132.58 412.146 1117.23 405.5 1102.22L436.932 1062.85Z" fill="#FFBF9D"/>
<path d="M205.644 705.442C191.712 709.929 179.687 718.959 171.494 731.088C161.06 747.132 157.86 774.925 160.841 795.617C167.154 839.236 187.144 912.839 198.41 960.096C202.268 976.404 210.203 1005.6 233.481 1021.07L399.582 1120.67L443.99 1054.92L292.574 931.514L262.633 762.388L205.644 705.442Z" fill="#455A64"/>
<path d="M176.93 871.675C177.157 872.228 177.333 872.8 177.456 873.385L178.859 878.514C180.042 883.161 181.708 889.824 183.9 898.373C188.284 915.908 194.509 940.808 202.268 971.801C206.773 988.683 216.315 1003.79 229.623 1015.11C237.225 1021.2 245.352 1026.6 253.909 1031.25L280.606 1047.38L400.24 1119.62L398.705 1119.97L414.706 1096.26L443.113 1054.04L443.332 1055.58L293.275 931.996H293.012V931.69C283.105 890 275.916 855.85 271.356 832.09C269.121 820.21 267.543 810.96 266.534 804.647C266.096 801.579 265.745 799.168 265.482 797.458C265.219 795.748 265.175 795.003 265.175 795.003C265.413 795.795 265.604 796.6 265.745 797.414C266.052 799.124 266.49 801.491 267.016 804.56C268.2 810.829 269.91 820.078 272.365 831.915C277.143 855.587 284.595 889.649 294.722 931.295L294.415 930.813L444.735 1053.82L445.524 1054.48L444.954 1055.31L416.547 1097.53L400.547 1121.24L399.977 1122.12L399.012 1121.6L279.554 1049.13L252.901 1032.95C244.287 1028.26 236.102 1022.82 228.439 1016.69C214.901 1005.1 205.246 989.627 200.777 972.371C193.281 941.29 187.275 916.171 183.242 898.767C181.27 890 179.691 883.468 178.596 878.821L177.324 873.429C177.152 872.855 177.02 872.269 176.93 871.675Z" fill="#263238"/>
<path d="M179.647 728.808C180.679 728.131 181.821 727.641 183.023 727.361C186.205 726.378 189.459 725.646 192.755 725.169C203.75 723.474 215.002 724.996 225.151 729.553C234.961 734.668 243.293 742.215 249.35 751.472C251.186 754.27 252.659 757.29 253.733 760.459C254.204 761.587 254.471 762.789 254.523 764.01C252.628 759.985 250.445 756.103 247.991 752.393C241.751 743.754 233.586 736.685 224.143 731.745C214.349 727.404 203.578 725.74 192.93 726.923C184.733 727.581 179.779 729.203 179.647 728.808Z" fill="#263238"/>
</svg>
